<svg width="56" height="56" fill="none" xmlns="http://www.w3.org/2000/svg"><path fill-rule="evenodd" clip-rule="evenodd" d="M55.513 33.184C53.037 46.404 41.466 56 28 56 14.534 56 2.963 46.404.487 33.184A28.14 28.14 0 010 28C0 12.56 12.56 0 28 0c15.439 0 28 12.56 28 28 0 1.716-.164 3.46-.487 5.184zM28 54c12.098 0 22.548-8.341 25.297-20H35.998A9.982 9.982 0 0128 38a9.986 9.986 0 01-7.999-4H2.703C5.452 45.659 15.902 54 28 54zm0-52C13.663 2 2 13.663 2 28c0 1.323.105 2.664.313 4h18.205a1 1 0 01.831.444A7.993 7.993 0 0028 36a7.993 7.993 0 006.651-3.556 1 1 0 01.831-.444h18.205c.208-1.336.313-2.677.313-4C54 13.663 42.336 2 28 2zm23 27h-4a1 1 0 010-2h4a1 1 0 010 2zm-2.582-11.634l-3.464 2a1 1 0 01-1-1.732l3.464-2a1 1 0 111 1.732zm-10.052-5.321a.998.998 0 01-1.366.366 1 1 0 01-.366-1.366l2-3.464a1 1 0 011.732 1l-2 3.464zm.502 5.087a.999.999 0 010 1.414l-7.435 7.435c.351.595.567 1.279.567 2.019 0 2.205-1.795 4-4 4-2.206 0-4-1.795-4-4 0-2.206 1.794-4 4-4a3.95 3.95 0 012.019.567l7.435-7.435a.999.999 0 011.414 0zm-9.454 9.455v-.001h-.001A1.993 1.993 0 0028 26c-1.103 0-2 .897-2 2s.897 2 2 2 2-.897 2-2c0-.552-.224-1.051-.586-1.413zM28 10a1 1 0 01-1-1V5a1 1 0 012 0v4a1 1 0 01-1 1zm-9 2.411a.998.998 0 01-1.366-.366l-2-3.464a1 1 0 111.732-1l2 3.464A1 1 0 0119 12.411zM11.544 19.5a.997.997 0 01-.499-.134l-3.464-2a1 1 0 011-1.732l3.464 2a1 1 0 01-.501 1.866zM10 28a1 1 0 01-1 1H5a1 1 0 010-2h4a1 1 0 011 1z" fill="#FE4C00"/></svg>