<svg width="44" height="56" fill="none" xmlns="http://www.w3.org/2000/svg"><path fill-rule="evenodd" clip-rule="evenodd" d="M34.151 46.999l-11.545 8.796a.994.994 0 01-1.213 0L9.849 46.999C3.682 42.301 0 34.867 0 27.113V9a1 1 0 011-1C14.392 8 21.181.418 21.247.341a1 1 0 01.752-.34h.002c.287 0 .56.123.75.339C22.819.416 29.661 8 43 8a1 1 0 011 1v18.113c0 7.754-3.682 15.188-9.849 19.886zM42 9.987c-11.245-.298-17.867-5.552-20-7.564-2.133 2.012-8.755 7.266-20 7.564v17.126c0 7.134 3.388 13.972 9.061 18.295L22 53.743l10.938-8.335C38.612 41.085 42 34.247 42 27.113V9.987zm-8.079 31.887c-.008.008-.01.02-.019.028-.007.007-.017.009-.024.016a20.698 20.698 0 01-2.15 1.899l-9.122 6.95c-.021.016-.046.025-.07.037-.032.02-.059.046-.093.063-.015.008-.033.005-.048.011-.013.007-.026.016-.04.021a.99.99 0 01-.355.072.998.998 0 01-.395-.093c-.007-.003-.016-.002-.024-.005-.008-.004-.017-.002-.024-.006-.029-.014-.049-.037-.076-.054-.028-.018-.061-.026-.088-.046l-9.121-6.95C7.093 39.87 4 33.625 4 27.113V12.798a1 1 0 01.898-.994c7.814-.8 13.286-3.86 16.499-6.286.011-.008.024-.01.036-.013.04-.028.076-.061.121-.083.057-.029.122-.017.182-.034.034-.01.062-.032.098-.038.038-.007.071-.02.11-.022.019-.001.036-.012.056-.012.018 0 .033.011.051.013.055.002.102.025.156.037.072.018.15.02.216.051.007.004.016.001.023.005.041.02.072.052.109.078.014.01.033.008.047.018 3.214 2.426 8.686 5.486 16.5 6.286a1 1 0 01.898.994v14.315c0 2.421-.439 4.798-1.249 7.037-.007.02-.011.04-.02.06a21.494 21.494 0 01-1.944 3.994c-.025.066-.07.123-.11.184a21.098 21.098 0 01-2.756 3.486zm1.708-5.659a19.57 19.57 0 001.01-2.162L30.586 28h-3.172l8.215 8.215zM23 47.952l2.008-1.53L23 44.414v3.538zm0-6.366l3.613 3.613 1.8-1.372L23 38.414v3.172zm0-6l7.018 7.018.497-.378c.434-.33.838-.693 1.239-1.058L23 32.414v3.172zm0-6l10.158 10.157c.502-.565.956-1.167 1.386-1.784L24.586 28H23v1.586zm-2-10v-3.172L11.414 26h3.172L21 19.586zM17.414 26H21v-3.586L17.414 26zm-3.929 16.226L21 47.952V28H6.021c.265 5.568 3.013 10.835 7.464 14.226zM6 26h2.586L21 13.586v-3.172l-15 15V26zm0-12.309v2.895l3.518-3.518A37.14 37.14 0 016 13.691zm7.461-1.738L6 19.414v3.172L19.298 9.288a34.31 34.31 0 01-5.837 2.665zM38 13.691c-6.647-.837-11.633-3.22-15-5.444V26h15V13.691zm-.657 18.238A18.39 18.39 0 0037.978 28h-4.564l3.929 3.929z" fill="#FE4C00"/></svg>