<svg width="56" height="49" fill="none" xmlns="http://www.w3.org/2000/svg"><path fill-rule="evenodd" clip-rule="evenodd" d="M55 20.062h-1.133L50.48 43.769a5.023 5.023 0 01-4.949 4.293H10.469a5.025 5.025 0 01-4.95-4.293L2.133 20.062H1a1 1 0 01-1-1v-4a1 1 0 011-1h28.586L41.794 1.854c1.178-1.179 3.234-1.179 4.412 0a3.125 3.125 0 01.002 4.414l-7.794 7.794H55a1 1 0 011 1v4a1 1 0 01-1 1zM7.499 43.486a3.016 3.016 0 002.97 2.576h35.062a3.016 3.016 0 002.97-2.576l3.346-23.424H4.153l3.346 23.424zM2 16.062v2h23.586l2-2H2zM44.794 4.854a1.123 1.123 0 000-1.584 1.146 1.146 0 00-1.586-.002L30.707 15.769l-2.293 2.293h3.172l2.443-2.443 1.264-1.264 9.501-9.501zM54 16.062H36.414l-2 2H54v-2zm-24 10a1 1 0 010 2h-4a1 1 0 010-2h4zm-8 14h-4a1 1 0 010-2h4a1 1 0 010 2zm0-6h-4a1 1 0 010-2h4a1 1 0 010 2zm0-6h-4a1 1 0 010-2h4a1 1 0 010 2zm-8 12h-4a1 1 0 010-2h4a1 1 0 010 2zm0-6h-4a1 1 0 010-2h4a1 1 0 010 2zm0-6h-4a1 1 0 010-2h4a1 1 0 010 2zm12 4h4a1 1 0 010 2h-4a1 1 0 010-2zm0 6h4a1 1 0 010 2h-4a1 1 0 010-2zm8-12h4a1 1 0 010 2h-4a1 1 0 010-2zm0 6h4a1 1 0 010 2h-4a1 1 0 010-2zm0 6h4a1 1 0 010 2h-4a1 1 0 010-2zm8-12h4a1 1 0 010 2h-4a1 1 0 010-2zm0 6h4a1 1 0 010 2h-4a1 1 0 010-2zm0 6h4a1 1 0 010 2h-4a1 1 0 010-2z" fill="#FE4C00"/></svg>