<svg width="54" height="54" fill="none" xmlns="http://www.w3.org/2000/svg"><path fill-rule="evenodd" clip-rule="evenodd" d="M28 0c14.336 0 26 11.663 26 26a1 1 0 01-2 0C52 12.766 41.233 2 28 2a1 1 0 010-2zm0 6c11.028 0 20 8.972 20 20a1 1 0 01-2 0c0-9.925-8.075-18-18-18a1 1 0 010-2zm0 12c4.411 0 8 3.589 8 8a1 1 0 01-2 0c0-3.309-2.691-6-6-6a1 1 0 010-2zm0-6c7.72 0 14 6.28 14 14a1 1 0 01-2 0c0-6.617-5.383-12-12-12a1 1 0 010-2zM9.587 4.052c1.556 0 2.997.704 3.952 1.931l5.202 6.683a4.996 4.996 0 01-.022 6.178l-1.174 1.486a3.006 3.006 0 00.233 3.989l11.955 11.955c1.05 1.05 2.82 1.155 3.989.233l1.485-1.174c1.75-1.382 4.419-1.392 6.178-.023l6.684 5.203a5.004 5.004 0 01.465 7.489l-4.269 4.269c-.733.734-2.08 1.601-4.375 1.672l-.306.005-.281-.004c-4.243-.116-11.801-2.9-24.048-15.148C7.812 31.353 3.027 24.893 1.034 19.595c-2.156-5.728-.458-8.604.746-9.808l4.27-4.269a4.97 4.97 0 013.537-1.466zm0 2c-.801 0-1.555.313-2.123.88l-4.27 4.269c-1.49 1.491-1.593 4.222-.288 7.69 1.892 5.029 6.523 11.251 13.763 18.491l.793.786c11.785 11.58 18.62 13.652 21.815 13.774l.308.006c1.797 0 2.768-.593 3.265-1.091l4.27-4.269a3.01 3.01 0 00-.28-4.497l-6.683-5.202c-1.065-.829-2.652-.823-3.709.013l-1.487 1.174a5.025 5.025 0 01-3.102 1.078 4.965 4.965 0 01-3.54-1.466L16.364 25.733a5.004 5.004 0 01-.388-6.643l1.173-1.486a2.998 2.998 0 00.014-3.709l-5.202-6.684a2.989 2.989 0 00-2.374-1.159z" fill="#FE4C00"/></svg>