<svg width="58" height="58" fill="none" xmlns="http://www.w3.org/2000/svg"><path fill-rule="evenodd" clip-rule="evenodd" d="M52 0c3.308 0 6 2.691 6 6 0 2.966-2.168 5.419-5 5.899v18.202c2.832.48 5 2.933 5 5.899 0 3.309-2.692 6-6 6a5.932 5.932 0 01-3.043-.835l-7.792 7.792c.53.891.835 1.931.835 3.043 0 3.309-2.691 6-6 6-2.966 0-5.419-2.168-5.899-5H11.899c-.48 2.832-2.933 5-5.899 5-3.309 0-6-2.691-6-6 0-2.966 2.168-5.419 5-5.899V27.899c-2.832-.48-5-2.933-5-5.899 0-3.309 2.691-6 6-6 1.294 0 2.477.43 3.455 1.131l7.665-7.665A5.95 5.95 0 0116 6c0-3.309 2.691-6 6-6 2.966 0 5.419 2.168 5.899 5h18.202c.48-2.832 2.933-5 5.899-5zM36 48c-2.206 0-4 1.794-4 4 0 2.205 1.794 4 4 4 2.205 0 4-1.795 4-4 0-2.206-1.795-4-4-4zM6 48c-2.206 0-4 1.794-4 4 0 2.205 1.794 4 4 4 2.205 0 4-1.795 4-4 0-2.206-1.795-4-4-4zm24.101-25H11.899A6 6 0 017 27.909v18.182a5.932 5.932 0 012.457 1.028l.19-.189a.999.999 0 111.414 1.414l-.191.19A5.976 5.976 0 0111.899 51h18.202A6 6 0 0135 46.091V36.046L34.991 36l.009-.046v-8.045A6 6 0 0130.101 23zm18.436-12.123l-7.657 7.657A5.95 5.95 0 0142 22c0 2.966-2.168 5.419-5 5.899V35h.991a1 1 0 010 2H37v9.101a6.007 6.007 0 012.863 1.331l7.568-7.57A6.007 6.007 0 0146.101 37h-.11a1 1 0 110-2h.1A6 6 0 0151 30.101V11.909a5.95 5.95 0 01-2.463-1.032zM13.902 44.089a.999.999 0 010 1.414l-1.136 1.136a.997.997 0 01-1.414 0 .999.999 0 010-1.414l1.136-1.136a.999.999 0 011.414 0zm2.841-2.841a1 1 0 010 1.414l-1.137 1.136a.996.996 0 01-1.414 0 1 1 0 010-1.414l1.137-1.136a.999.999 0 011.414 0zM21.991 29a1 1 0 011 1v.09A6.001 6.001 0 0127.899 35h.092a1 1 0 010 2h-.092c-.48 2.832-2.933 5-5.899 5a5.952 5.952 0 01-3.471-1.124l-.082.082a1 1 0 11-1.414-1.415l.082-.082A5.956 5.956 0 0116 36c0-2.963 2.163-5.415 4.991-5.898V30a1 1 0 011-1zM52 32c-2.206 0-4 1.794-4 4s1.794 4 4 4 4-1.794 4-4-1.794-4-4-4zm-30 0c-2.206 0-4 1.794-4 4s1.794 4 4 4a4.003 4.003 0 003.997-3.97l-.006-.03.006-.031A4.003 4.003 0 0022 32zm10.991 3a1 1 0 010 2h-2a1 1 0 110-2h2zm10 0a1 1 0 010 2h-2a1 1 0 110-2h2zm-21-11a1 1 0 011 1v2a1 1 0 01-2 0v-2a1 1 0 011-1zM36 18c-2.206 0-4 1.794-4 4 0 2.205 1.794 4 4 4 2.205 0 4-1.795 4-4 0-2.206-1.795-4-4-4zM6 18c-2.206 0-4 1.794-4 4 0 2.205 1.794 4 4 4 2.205 0 4-1.795 4-4 0-2.206-1.795-4-4-4zM46.101 7H27.899a6.001 6.001 0 01-4.908 4.91V12a1 1 0 01-2 0v-.091a6.01 6.01 0 01-2.457-1.029l-7.67 7.67A5.97 5.97 0 0111.899 21h9.092v-1a1 1 0 112 0v1h7.11c.48-2.832 2.933-5 5.899-5a5.95 5.95 0 013.466 1.12l7.66-7.66A5.99 5.99 0 0146.101 7zm-24.11 7a1 1 0 011 1v2a1 1 0 01-2 0v-2a1 1 0 011-1zM22 2c-2.206 0-4 1.794-4 4s1.794 4 4 4c2.205 0 4-1.794 4-4s-1.795-4-4-4zm30 0c-2.206 0-4 1.794-4 4s1.794 4 4 4 4-1.794 4-4-1.794-4-4-4z" fill="#FE4C00"/></svg>