<svg width="60" height="48" fill="none" xmlns="http://www.w3.org/2000/svg"><path fill-rule="evenodd" clip-rule="evenodd" d="M57 48H3c-1.654 0-3-1.346-3-3V3c0-1.654 1.346-3 3-3h54c1.654 0 3 1.346 3 3v42c0 1.654-1.346 3-3 3zm1-45a1 1 0 00-1-1H3a1 1 0 00-1 1v42a1 1 0 001 1h54a1 1 0 001-1V3zm-5 39H41a1 1 0 110-2h12a1 1 0 110 2zm0-8H37a1 1 0 110-2h16a1 1 0 110 2zm0-4H37a1 1 0 110-2h16a1 1 0 110 2zm0-4H37a1 1 0 110-2h16a1 1 0 110 2zm0-4H37a1 1 0 110-2h16a1 1 0 110 2zm0-4H37a1 1 0 110-2h16a1 1 0 110 2zm0-4H37a1 1 0 110-2h16a1 1 0 110 2zm-6-4H37a1 1 0 110-2h10a1 1 0 110 2zM35 42H23a1 1 0 110-2h12a1 1 0 110 2zm-16-8a12.99 12.99 0 01-8.742-3.369A13.07 13.07 0 016 21c0-7.168 5.832-13 13-13s13 5.832 13 13c0 3.892-1.722 7.548-4.723 10.03A13.066 13.066 0 0119 34zm6.256-3.95c-.867-.537-2.062-.966-3.428-1.204a1.592 1.592 0 01-1.317-1.61c.02-.33.019-.648.019-.976 0-.619.282-1.169.556-1.7.219-.425.445-.865.465-1.243.007-.132.04-.26.096-.379.252-.526.403-1.056.403-1.419a.548.548 0 00-.003-.064 1 1 0 01-.209-.822c.047-.243.089-.497.133-.755l.094-.553c.327-1.823-.57-2.371-1.274-2.625-.097-.032-.29-.079-.529-.139-.808-.202-1.627-.422-2.335-.719-.088.4-.274.752-.7.936-1.179.529-1.533 1.221-1.293 2.543l.095.557c.044.258.086.512.133.755a1 1 0 01-.209.822.548.548 0 00-.003.064c0 .363.15.893.402 1.419.057.119.089.247.097.379.019.366.228.765.449 1.189.281.539.572 1.095.572 1.754 0 .328-.001.646.018.945a1.6 1.6 0 01-1.315 1.641c-1.363.237-2.557.665-3.423 1.2A10.993 10.993 0 0019 32c2.233 0 4.421-.688 6.256-1.95zM19 10c-6.066 0-11 4.934-11 11 0 2.886 1.157 5.658 3.174 7.716 1.065-.801 2.548-1.428 4.301-1.776-.005-.215-.005-.445-.005-.68 0-.168-.192-.535-.345-.828-.256-.492-.569-1.092-.655-1.799-.253-.564-.52-1.341-.52-2.114 0-.344.059-.648.176-.908a22.294 22.294 0 01-.068-.401l-.092-.535c-.374-2.064.31-3.583 2.037-4.521l.015-.255c.031-.62.066-1.322.757-1.594.366-.144.87-.027 1.151.246.507.491 2.07.882 2.822 1.07.308.078.556.142.703.191 2.069.746 3.004 2.516 2.583 4.865l-.092.533a37.07 37.07 0 01-.068.401c.117.26.176.564.176.908 0 .773-.267 1.55-.52 2.114-.087.717-.405 1.336-.665 1.841-.134.259-.335.651-.335.786 0 .232 0 .46-.006.68 1.757.348 3.244.977 4.309 1.781A10.97 10.97 0 0030 21c0-6.066-4.935-11-11-11zM7 40h10a1 1 0 110 2H7a1 1 0 110-2z" fill="#FE4C00"/></svg>