<svg width="23" height="27" fill="none" xmlns="http://www.w3.org/2000/svg"><path fill-rule="evenodd" clip-rule="evenodd" d="M22.633 21.192c0-1.209-.454-2.2-1.36-2.972-.538-.47-1-1.15-1.386-2.04-.386-.89-.696-1.947-.931-3.173a20.705 20.705 0 01-.353-3.904c0-1.578-.453-2.988-1.36-4.23a7.212 7.212 0 00-3.526-2.62 2.43 2.43 0 00-.806-1.435 2.278 2.278 0 00-1.561-.58c-.605 0-1.125.193-1.562.58a2.43 2.43 0 00-.806 1.435c-.94.336-1.78.84-2.518 1.511a7.253 7.253 0 00-1.738 2.393 7.038 7.038 0 00-.63 2.946c0 2.082-.243 3.946-.73 5.591-.487 1.646-1.133 2.821-1.94 3.526-.906.773-1.36 1.763-1.36 2.972 0 .672.236 1.243.706 1.713s1.041.705 1.713.705h6.447c0 .672.235 1.242.705 1.713.47.47 1.041.705 1.713.705.671 0 1.242-.235 1.712-.705s.706-1.041.706-1.713h6.447c.672 0 1.242-.235 1.712-.705s.706-1.041.706-1.713zm-2.418 0H2.485c0-.47.184-.856.554-1.158 1.074-.94 1.922-2.384 2.543-4.332.622-1.948.932-4.147.932-6.599 0-.873.218-1.679.655-2.417a4.928 4.928 0 011.763-1.763 4.667 4.667 0 012.418-.655c1.343 0 2.485.47 3.425 1.41s1.41 2.082 1.41 3.425c0 2.452.31 4.651.932 6.599.621 1.947 1.47 3.391 2.544 4.332.37.302.554.688.554 1.158z" fill="#898989"/></svg>