<svg width="52" height="19" fill="none" xmlns="http://www.w3.org/2000/svg"><path fill-rule="evenodd" clip-rule="evenodd" d="M5.736 18.992c-1.55-.063-2.817-.498-3.808-1.305a7.705 7.705 0 01-.791-.811 5.108 5.108 0 01-.858-1.582c-.56-1.723-.272-3.983.826-6.463.94-2.124 2.39-4.23 4.92-7.147A169.29 169.29 0 017.516 0c.003 0-.057.107-.133.238C6.724 1.368 6.16 2.7 5.854 3.851c-.493 1.849-.433 3.436.174 4.666.419.847 1.137 1.582 1.945 1.987 1.414.71 3.484.77 6.011.172.174-.041 8.798-2.388 19.165-5.216C43.516 2.633 51.999.321 52 .323c.003.002-24.084 10.57-36.589 16.052-1.98.867-2.51 1.087-3.44 1.422-2.38.857-4.512 1.265-6.235 1.195z" fill="#FE4C00"/></svg>