<svg width="56" height="24" fill="none" xmlns="http://www.w3.org/2000/svg"><path fill-rule="evenodd" clip-rule="evenodd" d="M3.91 9.405c0-.625.495-.866 1.314-.866 1.174 0 2.658.369 3.832 1.026V5.8c-1.282-.529-2.55-.737-3.832-.737C2.086 5.063 0 6.76 0 9.597c0 4.422 5.873 3.717 5.873 5.623 0 .737-.618.978-1.484.978-1.283 0-2.92-.545-4.219-1.282v3.813c1.437.64 2.89.913 4.22.913 3.214 0 5.424-1.65 5.424-4.518C9.798 10.35 3.91 11.2 3.91 9.404zm10.447-7.546l-3.77.833-.016 12.833c0 2.371 1.715 4.117 4.003 4.117 1.267 0 2.194-.24 2.704-.528V15.86c-.494.209-2.936.945-2.936-1.426V8.748h2.936V5.335h-2.936l.015-3.476zm7.728 4.662l-.248-1.186H18.5v14.019h3.864v-9.5c.912-1.234 2.457-1.01 2.936-.834V5.335c-.494-.192-2.303-.545-3.214 1.186zm4.157-1.186h3.879v14.019h-3.88V5.335zm0-1.218l3.879-.865V0l-3.88.85v3.267zm11.946.946c-1.514 0-2.488.737-3.029 1.25l-.2-.994h-3.4V24l3.863-.849.015-4.534c.557.416 1.376 1.01 2.736 1.01 2.766 0 5.285-2.308 5.285-7.387-.015-4.646-2.565-7.177-5.27-7.177zm-.927 11.039c-.912 0-1.453-.337-1.824-.754l-.015-5.943c.402-.465.958-.785 1.839-.785 1.406 0 2.38 1.634 2.38 3.732 0 2.147-.958 3.75-2.38 3.75zM55.636 12.4c0-4.102-1.916-7.338-5.579-7.338-3.678 0-5.904 3.236-5.904 7.306 0 4.822 2.628 7.257 6.399 7.257 1.839 0 3.23-.432 4.28-1.041V15.38c-1.05.545-2.256.882-3.786.882-1.499 0-2.828-.545-2.998-2.436h7.557c0-.208.031-1.04.031-1.425zm-7.634-1.522c0-1.81 1.066-2.564 2.04-2.564.942 0 1.947.753 1.947 2.564h-3.987z" fill="#FE4C00"/></svg>