<svg width="68" height="14" fill="none" xmlns="http://www.w3.org/2000/svg"><path fill-rule="evenodd" clip-rule="evenodd" d="M10.696 8.056V.338c0-.225.115-.338.343-.338h2.614v8.183c0 4.31-2.785 5.817-6.827 5.817C2.785 14 0 12.493 0 8.183V.338C0 .113.114 0 .343 0h2.613v8.056c0 2.578 1.157 3.648 3.87 3.648 2.714 0 3.87-1.07 3.87-3.648zm38.27-6.042c-.07.155-.17.225-.385.225h-7.954V5.69h6.64c.114 0 .157.056.114.17l-.728 1.774c-.072.155-.171.225-.385.225h-3.9c-1.27 0-1.741.38-1.741 1.225v2.437h8.982c.114 0 .157.056.114.169l-.757 1.845c-.07.155-.17.226-.385.226h-9.81c-.758 0-1.043-.254-1.043-.817V.957c0-.662.37-.958 1.356-.958H49.61c.114 0 .157.057.114.169l-.757 1.845zm-17.3 1.479c0 1.31-.47 2.422-1.613 3.014 1.57.408 2.285 1.803 2.285 3.45 0 2.747-1.971 3.803-4.727 3.803h-7.312c-.757 0-1.042-.253-1.042-.816V.957c0-.662.37-.958 1.356-.958h5.941c2.6 0 5.112.45 5.112 3.493zm-9.512-1.282h4.614c1.543 0 1.971.573 1.971 1.76 0 1.189-.428 1.761-1.97 1.761h-4.615v-3.52zm5.157 9.338h-5.157V9.028c0-.845.471-1.225 1.742-1.225h3.415c1.642 0 2.1.62 2.1 1.887 0 1.268-.458 1.86-2.1 1.86zm40.655 1.972L64.84 8.225c1.556-.394 2.813-1.408 2.813-3.986 0-3.337-2.1-4.239-5.57-4.239h-5.969c-.985 0-1.356.296-1.356.958v12.464c0 .226.114.338.343.338h2.556V9.747c0-.845.47-1.225 1.742-1.225h2.57l2.828 5.014c.086.14.171.226.386.226h2.656c.186 0 .186-.156.128-.24zm-5.455-7.14h-4.855V2.21h4.855c1.814 0 2.214.69 2.214 2.085 0 1.408-.4 2.084-2.214 2.084z" fill="#FE4C00"/></svg>