<svg width="122" height="24" fill="none" xmlns="http://www.w3.org/2000/svg"><path fill-rule="evenodd" clip-rule="evenodd" d="M7.05 9l7.05-4.5 7.05 4.463-7.05 4.5L21.113 18l7.05-4.5-7.05-4.5 7.05-4.5-7.05-4.5L14.1 4.5 7.05 0 0 4.5l7.05 4.463-7.05 4.5L7.05 18l7.05-4.5L7.05 9zm7.013 5.925l-7.05 4.5 7.05 4.5 7.05-4.5-7.05-4.5zM39.374 4.5h-5.7v14.925h5.813c3.712 0 6.525-2.175 6.525-7.013V11.4c0-4.8-3-6.9-6.638-6.9zm-2.513 12.188V7.2h2.325c2.1 0 3.563 1.35 3.563 4.35v.787c0 3-1.388 4.35-3.45 4.35h-2.438zM50.25 7.35h-2.513v12.112h3.15v-5.55c0-2.55.638-3.45 3.225-3.45h1.313V7.239h-.787c-2.25 0-3.488 1.012-3.975 2.924L50.25 7.35zm5.813 5.963v.337c0 3.975 2.212 6.075 6.112 6.112 3.675 0 6.112-2.137 6.112-6.112v-.338c0-4.05-2.512-6.262-6.112-6.262-3.525 0-6.112 2.212-6.112 6.263zm6.075-3.6c1.8 0 2.925 1.35 2.925 3.6v.3c0 2.175-1.126 3.375-2.925 3.412-1.8 0-2.925-1.237-2.925-3.412v-.3c0-2.363 1.162-3.6 2.925-3.6zM72.563 7.35h-2.626L69.9 23.625h3.075v-6.113c.638 1.388 1.95 2.25 3.863 2.25 2.85 0 5.1-2.1 5.1-6.075v-.337c0-4.088-2.026-6.3-5.1-6.3-1.988 0-3.338 1.05-3.975 2.587l-.3-2.287zm6.187 6v.263c0 2.25-1.125 3.412-2.925 3.45-1.763 0-2.888-1.35-2.888-3.488v-.225c0-2.25 1.163-3.6 2.925-3.6 1.65 0 2.888 1.2 2.888 3.6zm7.575 6.075l.263-2.213c.637 1.576 1.95 2.513 3.975 2.55 3.075 0 5.1-2.287 5.1-6.3v-.374c0-4.013-2.138-6-5.025-6.038-1.913 0-3.263.862-3.938 2.438V3.3h-3.075v16.125h2.7zm3.225-9.713c1.688 0 2.888 1.238 2.888 3.45v.3c0 2.4-1.088 3.563-2.925 3.563-1.726 0-2.888-1.312-2.888-3.562V13.2c0-2.1 1.2-3.487 2.925-3.487zm7.463 3.6v.338c0 3.975 2.212 6.075 6.112 6.112 3.638 0 6.113-2.137 6.113-6.112v-.338c0-4.05-2.513-6.262-6.113-6.262-3.525 0-6.112 2.212-6.112 6.263zm6.112-3.6c1.8 0 2.925 1.35 2.925 3.6v.3c0 2.175-1.125 3.376-2.925 3.413-1.8 0-2.925-1.237-2.925-3.412v-.3c0-2.363 1.163-3.6 2.925-3.6zm6-2.362l4.237 5.813-4.612 6.262h3.712l2.7-4.013 2.776 4.013h3.562l-4.538-6.3 4.313-5.775h-3.6l-2.475 3.638-2.438-3.638h-3.637z" fill="#FE4C00"/></svg>