<svg width="61" height="20" fill="none" xmlns="http://www.w3.org/2000/svg"><path fill-rule="evenodd" clip-rule="evenodd" d="M7.902 7.105v2.12l5.088-.002c-.156 1.17-.552 2.025-1.154 2.625-.742.739-1.9 1.552-3.934 1.552-3.135 0-5.588-2.517-5.588-5.64 0-3.123 2.453-5.64 5.588-5.64 1.692 0 2.927.663 3.84 1.515l1.501-1.497C11.972.928 10.28 0 7.904 0 3.611 0 0 3.484 0 7.76c0 4.277 3.61 7.76 7.904 7.76 2.317 0 4.066-.757 5.434-2.176 1.408-1.402 1.844-3.369 1.844-4.96 0-.473-.036-.91-.106-1.28H7.902zm42.918 8.111V.57h-2.15v14.646h2.15zm-24.716-4.691c0 2.877-2.26 4.998-5.033 4.998-2.774 0-5.034-2.12-5.034-4.998 0-2.898 2.26-4.998 5.034-4.998 2.773 0 5.033 2.1 5.033 4.998zm-2.203 0c0-1.798-1.31-3.028-2.83-3.028s-2.83 1.23-2.83 3.028c0 1.78 1.31 3.028 2.83 3.028s2.83-1.25 2.83-3.028zm13.062 0c0 2.877-2.26 4.998-5.033 4.998-2.774 0-5.034-2.12-5.034-4.998 0-2.895 2.26-4.998 5.034-4.998 2.773 0 5.033 2.1 5.033 4.998zm-2.203 0c0-1.798-1.31-3.028-2.83-3.028s-2.83 1.23-2.83 3.028c0 1.78 1.31 3.028 2.83 3.028s2.83-1.25 2.83-3.028zm12.61 4.277v-8.97h-2.093v.813H45.2c-.495-.588-1.445-1.118-2.642-1.118-2.509 0-4.807 2.195-4.807 5.016 0 2.8 2.298 4.978 4.807 4.978 1.199 0 2.15-.53 2.642-1.136h.077v.719c0 1.913-1.025 2.929-2.678 2.929-1.349 0-2.186-.96-2.527-1.773l-1.919.795C38.705 18.38 40.17 20 42.601 20c2.583 0 4.769-1.507 4.769-5.198zm-4.615-7.305c1.5 0 2.678 1.286 2.678 3.046 0 1.742-1.178 3.01-2.678 3.01-1.52 0-2.794-1.268-2.794-3.01 0-1.76 1.273-3.046 2.794-3.046zm18.15 5.809l-1.71-1.136c-.57.834-1.349 1.383-2.47 1.383-1.12 0-1.92-.511-2.433-1.514L61 9.272l-.228-.568c-.417-1.115-1.69-3.179-4.294-3.179-2.586 0-4.733 2.026-4.733 4.998 0 2.803 2.129 4.998 4.98 4.998 2.298 0 3.628-1.402 4.18-2.216zm-2.49-4.789l-4.485 1.855c-.056-1.929 1.502-2.914 2.622-2.914.874 0 1.616.435 1.862 1.06z" fill="#FE4C00"/></svg>