<svg width="67" height="68" fill="none" xmlns="http://www.w3.org/2000/svg"><path d="M33.41.697C14.982.697.043 15.565.043 33.906c0 18.333 14.931 33.193 33.347 33.193h.031c18.419 0 33.347-14.863 33.347-33.193C66.774 15.565 51.838.697 33.41.697z" fill="#6E6E6E"/><path d="M49.752 25.392h-9.533v-2.355h9.536l-.003 2.355zm-15.88 9.667c.615.948.922 2.1.922 3.453 0 1.397-.347 2.651-1.051 3.758a6.514 6.514 0 01-1.675 1.85c-.755.577-1.647.972-2.672 1.184-1.028.212-2.143.32-3.343.32h-10.66V22.06h11.434c2.882.047 4.925.877 6.132 2.51.723 1 1.083 2.202 1.083 3.6 0 1.44-.363 2.594-1.094 3.468-.407.492-1.007.937-1.8 1.34 1.2.437 2.113 1.128 2.723 2.081zm-13.02-3.71h5.01c1.028 0 1.861-.193 2.503-.583.642-.39.96-1.08.96-2.073 0-1.097-.424-1.824-1.273-2.172-.728-.244-1.662-.37-2.795-.37h-4.408v5.199h.003zm8.954 6.825c0-1.225-.502-2.07-1.507-2.523-.56-.26-1.351-.39-2.366-.401h-5.081v6.28h5.002c1.028 0 1.822-.134 2.398-.414 1.036-.513 1.554-1.49 1.554-2.942zm23.483-3.832c.115.772.168 1.89.147 3.35H41.09c.068 1.696.657 2.882 1.772 3.563.673.426 1.489.633 2.443.633 1.007 0 1.828-.254 2.462-.775.344-.277.646-.664.91-1.157h4.525c-.118 1.003-.663 2.018-1.643 3.05-1.518 1.641-3.645 2.463-6.377 2.463-2.257 0-4.247-.694-5.975-2.078-1.72-1.388-2.585-3.639-2.585-6.761 0-2.93.776-5.17 2.333-6.73 1.562-1.563 3.578-2.34 6.066-2.34 1.473 0 2.803.262 3.987.79 1.18.529 2.159 1.359 2.927 2.5.699 1.005 1.146 2.167 1.354 3.492zm-4.455.44c-.084-1.173-.476-2.06-1.186-2.668-.702-.607-1.58-.913-2.627-.913-1.139 0-2.02.327-2.645.968-.629.642-1.02 1.51-1.181 2.613h7.64z" fill="#fff"/></svg>