<svg width="44" height="44" fill="none" xmlns="http://www.w3.org/2000/svg"><path d="M21.937 43.304h.02c12.009 0 21.742-9.69 21.742-21.641v-.01C43.7 9.693 33.962 0 21.949 0S.198 9.693.198 21.651v.01C.196 33.614 9.93 43.304 21.938 43.304z" fill="#979797"/><path fill-rule="evenodd" clip-rule="evenodd" d="M32.24 20.43v-2.92h-2.092v2.922h-2.934v2.082h2.934v2.92h2.091v-2.92h2.936V20.43h-2.936zm-15.103-.221v3.34h4.495c-.139.7-.422 1.346-.92 1.889-1.802 1.957-5.161 1.937-7.085-.033a5.057 5.057 0 01.046-7.09c1.854-1.849 4.84-1.929 6.646-.171l-.004.003 2.45-2.438c-3.281-2.971-8.344-2.925-11.538.213a8.35 8.35 0 00-.08 11.842c3.26 3.29 8.915 3.322 11.972.054 1.844-1.972 2.374-4.802 1.935-7.608h-7.917v-.001z" fill="#fff"/></svg>