<svg width="44" height="44" fill="none" xmlns="http://www.w3.org/2000/svg"><path d="M22.239 43.302h.02c12.008 0 21.741-9.69 21.741-21.64v-.01C44 9.692 34.262 0 22.25 0 10.236 0 .498 9.693.498 21.651v.01c0 11.951 9.734 21.641 21.74 21.641z" fill="#979797"/><path d="M34.018 16.197c-.293-1.27-1.337-2.205-2.592-2.345-2.973-.331-5.982-.333-8.978-.331-2.997-.002-6.006 0-8.98.331-1.254.14-2.296 1.075-2.59 2.345-.418 1.807-.421 3.78-.421 5.642 0 1.862 0 3.834.416 5.642.293 1.27 1.336 2.204 2.592 2.344 2.973.331 5.982.333 8.979.331 2.997.002 6.006 0 8.979-.33 1.255-.14 2.299-1.076 2.592-2.345.416-1.808.42-3.78.42-5.642-.002-1.862 0-3.835-.417-5.642zm-14.09 8.894v-6.618l6.34 3.31-6.34 3.308z" fill="#fff"/></svg>