<svg width="45" height="44" fill="none" xmlns="http://www.w3.org/2000/svg"><path d="M22.64 43.304h.02c12.008 0 21.741-9.69 21.741-21.641v-.01C44.403 9.693 34.665 0 22.651 0 10.638 0 .898 9.693.898 21.651v.01c0 11.953 9.735 21.643 21.741 21.643z" fill="#979797"/><path d="M35.36 14.502c-.88.39-1.826.652-2.819.77a4.903 4.903 0 002.159-2.703c-.948.56-2 .966-3.117 1.186A4.913 4.913 0 0028 12.212c-2.71 0-4.908 2.188-4.908 4.884 0 .383.043.756.127 1.113a13.952 13.952 0 01-10.115-5.104 4.88 4.88 0 001.517 6.522 4.888 4.888 0 01-2.222-.61v.06c0 2.367 1.692 4.342 3.936 4.79a4.964 4.964 0 01-2.217.084 4.91 4.91 0 004.585 3.393 9.876 9.876 0 01-6.095 2.092c-.396 0-.787-.024-1.171-.068a13.939 13.939 0 007.523 2.195c9.027 0 13.963-7.444 13.963-13.898 0-.212-.006-.422-.014-.632a9.986 9.986 0 002.45-2.53z" fill="#fff"/></svg>