<svg width="44" height="44" fill="none" xmlns="http://www.w3.org/2000/svg"><path d="M21.74 43.304h.02c12.008 0 21.74-9.69 21.74-21.641v-.01C43.504 9.693 33.765 0 21.752 0 9.738 0 0 9.693 0 21.651v.01c-.002 11.953 9.733 21.643 21.74 21.643z" fill="#979797"/><path fill-rule="evenodd" clip-rule="evenodd" d="M20.94 30.177h1.649s.497-.055.753-.328c.235-.25.226-.72.226-.72s-.033-2.201.994-2.527c1.014-.32 2.313 2.128 3.69 3.07 1.042.712 1.833.556 1.833.556l3.684-.051s1.927-.118 1.013-1.626c-.075-.123-.531-1.116-2.74-3.156-2.31-2.135-2-1.788.782-5.481 1.694-2.25 2.373-3.622 2.16-4.209-.202-.56-1.448-.413-1.448-.413l-4.15.026s-.306-.041-.534.094c-.223.133-.365.444-.365.444s-.657 1.739-1.533 3.22c-1.846 3.121-2.585 3.287-2.887 3.094-.703-.452-.526-1.816-.526-2.784 0-3.025.46-4.286-.899-4.614-.45-.108-.783-.18-1.935-.191-1.48-.016-2.733.005-3.443.35-.471.23-.837.742-.614.771.274.036.895.167 1.224.613.425.575.41 1.868.41 1.868s.244 3.562-.57 4.004c-.56.304-1.328-.316-2.974-3.149-.843-1.45-1.481-3.054-1.481-3.054s-.123-.3-.341-.461c-.266-.195-.638-.256-.638-.256l-3.942.025s-.591.018-.809.273c-.193.23-.015.7-.015.7s3.086 7.186 6.58 10.81c3.208 3.32 6.846 3.102 6.846 3.102z" fill="#fff"/></svg>