<svg width="45" height="44" fill="none" xmlns="http://www.w3.org/2000/svg"><path d="M22.338 43.304h.021c12.008 0 21.741-9.69 21.741-21.641v-.01C44.102 9.693 34.364 0 22.35 0 10.337 0 .6 9.693.6 21.651v.01c-.003 11.953 9.732 21.643 21.738 21.643z" fill="#979797"/><path d="M22.35 12.55c2.978 0 3.33.012 4.507.065 1.087.05 1.678.23 2.07.382.522.201.892.442 1.283.831.391.39.633.758.835 1.277.153.39.335.98.384 2.061.054 1.17.066 1.522.066 4.487 0 2.964-.012 3.316-.066 4.486-.05 1.082-.231 1.67-.384 2.062a3.432 3.432 0 01-.835 1.276c-.39.39-.76.63-1.282.831-.393.152-.984.333-2.071.383-1.176.053-1.53.064-4.507.064-2.979 0-3.332-.011-4.508-.064-1.087-.05-1.678-.23-2.07-.383a3.451 3.451 0 01-1.283-.83 3.432 3.432 0 01-.835-1.277c-.153-.391-.335-.98-.384-2.062-.053-1.17-.065-1.522-.065-4.486 0-2.965.012-3.316.065-4.487.05-1.082.231-1.67.384-2.061.202-.52.444-.888.835-1.277a3.44 3.44 0 011.282-.831c.393-.152.984-.333 2.071-.382 1.176-.055 1.528-.065 4.508-.065zm0-2.002c-3.03 0-3.41.012-4.599.067-1.188.054-1.997.242-2.707.515a5.464 5.464 0 00-1.975 1.28 5.44 5.44 0 00-1.286 1.966c-.276.706-.464 1.514-.517 2.694-.055 1.185-.067 1.562-.067 4.578 0 3.015.012 3.394.067 4.576.054 1.183.243 1.989.517 2.695a5.44 5.44 0 001.286 1.966c.62.618 1.243.997 1.975 1.28.71.275 1.521.462 2.707.515 1.19.055 1.57.067 4.599.067s3.41-.012 4.598-.067c1.188-.054 1.997-.242 2.707-.515a5.463 5.463 0 001.975-1.28 5.44 5.44 0 001.286-1.966c.276-.706.464-1.514.518-2.695.054-1.184.066-1.561.066-4.576 0-3.016-.012-3.395-.066-4.578-.055-1.182-.244-1.988-.518-2.694a5.433 5.433 0 00-1.286-1.966 5.47 5.47 0 00-1.975-1.28c-.71-.275-1.52-.462-2.707-.515-1.19-.053-1.57-.067-4.598-.067z" fill="#fff"/><path d="M22.35 15.951c-3.163 0-5.728 2.553-5.728 5.702 0 3.148 2.565 5.701 5.728 5.701s5.728-2.553 5.728-5.701c0-3.149-2.565-5.702-5.728-5.702zm0 9.401a3.71 3.71 0 01-3.719-3.701 3.71 3.71 0 013.72-3.701 3.71 3.71 0 013.718 3.701 3.71 3.71 0 01-3.719 3.701zm5.954-8.293c.74 0 1.34-.597 1.34-1.333s-.6-1.333-1.34-1.333c-.74 0-1.339.597-1.339 1.333s.6 1.333 1.34 1.333z" fill="#fff"/></svg>