<svg width="17" height="17" fill="none" xmlns="http://www.w3.org/2000/svg"><path d="M15.487 1.594h-2.288V.53a.53.53 0 10-1.056 0v1.063H8.975V.53A.53.53 0 008.447 0a.53.53 0 00-.528.531v1.063H4.752V.53A.53.53 0 004.224 0a.53.53 0 00-.528.531v1.063H1.408C.63 1.594 0 2.228 0 3.01v12.573C0 16.366.63 17 1.408 17h14.079c.778 0 1.407-.634 1.407-1.417V3.01c0-.782-.63-1.416-1.407-1.416zm.351 13.99a.353.353 0 01-.351.354H1.408a.353.353 0 01-.352-.355V3.01c0-.195.158-.354.352-.354h2.288V3.72a.53.53 0 00.528.531.53.53 0 00.528-.531V2.656h3.167V3.72a.53.53 0 00.528.531.53.53 0 00.528-.531V2.656h3.168V3.72a.53.53 0 101.056 0V2.656h2.288c.194 0 .351.16.351.354v12.573z" fill="#1A61C9"/><path d="M5.807 6.375H3.696v1.594h2.111V6.375zm0 2.656H3.696v1.594h2.111V9.031zm0 2.657H3.696v1.593h2.111v-1.594zm3.696 0H7.391v1.593h2.112v-1.594zm0-2.657H7.391v1.594h2.112V9.031zm0-2.656H7.391v1.594h2.112V6.375zm3.696 5.313h-2.112v1.593h2.112v-1.594zm0-2.657h-2.112v1.594h2.112V9.031zm0-2.656h-2.112v1.594h2.112V6.375z" fill="#1A61C9"/></svg>