<svg width="17" height="17" fill="none" xmlns="http://www.w3.org/2000/svg"><path d="M15.584 1.594H13.28V.53a.53.53 0 10-1.062 0v1.063H9.03V.53a.531.531 0 10-1.062 0v1.063H4.78V.53a.531.531 0 10-1.062 0v1.063H1.417A1.418 1.418 0 000 3.01v12.573C0 16.366.634 17 1.417 17h14.167c.782 0 1.416-.634 1.416-1.417V3.01c0-.782-.634-1.416-1.416-1.416zm.354 13.99a.354.354 0 01-.354.354H1.417a.355.355 0 01-.355-.355V3.01c0-.195.16-.354.355-.354h2.302V3.72a.531.531 0 101.062 0V2.656H7.97V3.72a.531.531 0 101.062 0V2.656h3.188V3.72a.53.53 0 101.062 0V2.656h2.303c.195 0 .354.16.354.354v12.573z" fill="#FE4C00"/><path d="M5.844 6.375H3.719v1.594h2.125V6.375zm0 2.656H3.719v1.594h2.125V9.031zm0 2.657H3.719v1.593h2.125v-1.594zm3.719 0H7.437v1.593h2.126v-1.594zm0-2.657H7.437v1.594h2.126V9.031zm0-2.656H7.437v1.594h2.126V6.375zm3.718 5.313h-2.125v1.593h2.125v-1.594zm0-2.657h-2.125v1.594h2.125V9.031zm0-2.656h-2.125v1.594h2.125V6.375z" fill="#FE4C00"/></svg>