<svg width="31" height="39" fill="none" xmlns="http://www.w3.org/2000/svg"><path fill-rule="evenodd" clip-rule="evenodd" d="M21.579 0H1.367C.804 0 .348.456.348 1.341v36.963c0 .24.456.696 1.02.696h27.908c.563 0 1.019-.456 1.019-.696V9.038c0-.484-.065-.64-.18-.755L22.013.179A.615.615 0 0021.579 0z" fill="#E9E9E0"/><path fill-rule="evenodd" clip-rule="evenodd" d="M21.938.105v8.252h8.252L21.936.105z" fill="#D9D7CA"/><path fill-rule="evenodd" clip-rule="evenodd" d="M8.705 9.053H4.527a.697.697 0 010-1.392h4.178a.697.697 0 010 1.393zm2.09 3.483H4.527a.697.697 0 010-1.393h6.268a.697.697 0 010 1.393zm2.785 0a.732.732 0 01-.494-.202.732.732 0 01-.202-.495.73.73 0 01.202-.494.73.73 0 01.989 0 .732.732 0 01.202.494.732.732 0 01-.202.495.732.732 0 01-.495.202zm8.358 0h-5.572a.697.697 0 010-1.393h5.572a.697.697 0 010 1.393zM4.527 22.982a.733.733 0 01-.495-.202.732.732 0 01-.202-.494c0-.181.077-.363.202-.495a.73.73 0 01.99 0 .72.72 0 01.201.495.732.732 0 01-.202.494.733.733 0 01-.494.202zm8.357 0H7.313a.697.697 0 010-1.393h5.57a.697.697 0 010 1.393zm13.232-10.446h-1.393a.697.697 0 010-1.393h1.393a.697.697 0 010 1.393zm-6.268 3.482H4.527a.697.697 0 010-1.393h15.321a.697.697 0 010 1.393zm6.268 0h-4.178a.697.697 0 010-1.393h4.178a.697.697 0 010 1.393zM7.312 19.5H4.527a.697.697 0 010-1.393h2.785a.697.697 0 010 1.393zm9.751 0h-6.965a.697.697 0 010-1.393h6.964a.697.697 0 010 1.393zm9.053 0h-6.268a.697.697 0 010-1.393h6.268a.697.697 0 010 1.393z" fill="#8697CB"/><path fill-rule="evenodd" clip-rule="evenodd" d="M29.276 39H1.367a1.019 1.019 0 01-1.019-1.02V27.16h29.947v10.82a1.02 1.02 0 01-1.02 1.019z" fill="#0096E6"/><path fill-rule="evenodd" clip-rule="evenodd" d="M12.002 34.688c.123-.41.185-.904.185-1.48 0-.42-.073-.828-.219-1.225a3.067 3.067 0 00-.662-1.061 3.232 3.232 0 00-1.114-.748c-.447-.186-.966-.28-1.556-.28H6.523v7.017h2.656c.088 0 .225-.011.409-.032.184-.023.387-.073.61-.153.221-.08.451-.198.69-.357a2.42 2.42 0 00.642-.653c.19-.276.348-.619.472-1.028zm-1.528.643c-.343.495-.902.742-1.676.742H7.665V30.76h.666c.546 0 .99.072 1.333.214.343.143.615.33.815.562.2.232.334.49.404.776.07.286.105.575.105.867 0 .94-.172 1.656-.514 2.152zm8.436-.401c.15-.45.224-.97.224-1.561 0-.59-.075-1.11-.223-1.557a3.208 3.208 0 00-.62-1.118 2.646 2.646 0 00-.923-.681 2.826 2.826 0 00-1.156-.234c-.42 0-.805.078-1.157.234-.353.156-.66.382-.924.68-.264.299-.47.671-.619 1.12-.149.446-.223.966-.223 1.556 0 .59.074 1.11.223 1.561.15.45.356.825.62 1.123.263.3.57.524.923.677.352.152.738.228 1.157.228.418 0 .804-.076 1.156-.228.353-.153.66-.378.924-.677.263-.298.47-.672.619-1.123zm-2.056.958a1.677 1.677 0 01-.672.138c-.228 0-.445-.05-.652-.148a1.527 1.527 0 01-.553-.467 2.386 2.386 0 01-.38-.824 4.918 4.918 0 01-.148-1.218c.006-.49.058-.9.152-1.238a2.33 2.33 0 01.395-.824c.168-.212.358-.363.571-.452.213-.089.437-.133.672-.133.229 0 .446.048.652.143.206.095.39.25.553.467.162.215.289.49.38.824.092.332.142.737.148 1.213-.007.49-.058.903-.152 1.243-.095.34-.227.614-.395.824-.168.209-.359.36-.571.452zm8.64.309c-.26.253-.556.444-.885.571-.33.127-.685.19-1.066.19a2.88 2.88 0 01-1.157-.228 2.59 2.59 0 01-.923-.677 3.19 3.19 0 01-.62-1.123c-.149-.45-.223-.971-.223-1.561s.074-1.11.223-1.557c.15-.448.356-.82.62-1.118.263-.3.572-.525.928-.681.355-.156.74-.234 1.152-.234.38 0 .736.064 1.066.19a2.6 2.6 0 01.885.572l-.79.704a1.443 1.443 0 00-1.133-.523c-.235 0-.46.043-.672.133-.213.089-.403.24-.57.452a2.33 2.33 0 00-.396.823 4.89 4.89 0 00-.152 1.238c.006.476.056.882.148 1.219.091.336.218.61.38.824.163.213.346.367.553.466.206.1.423.148.652.148.23 0 .443-.042.643-.124.2-.082.382-.216.547-.4l.79.696z" fill="#fff"/></svg>