<svg width="33" height="42" fill="none" xmlns="http://www.w3.org/2000/svg"><path fill-rule="evenodd" clip-rule="evenodd" d="M22.686 0H1.09C.487 0 0 .491 0 1.444V41.25c0 .259.487.75 1.089.75H30.91c.602 0 1.089-.491 1.089-.75V9.733c0-.522-.07-.69-.191-.813L23.149.193A.655.655 0 0022.686 0z" fill="#E9E9E0"/><path fill-rule="evenodd" clip-rule="evenodd" d="M23 0v9h9l-9-9z" fill="#D9D7CA"/><path fill-rule="evenodd" clip-rule="evenodd" d="M9.5 14a3.5 3.5 0 100-7 3.5 3.5 0 000 7z" fill="#F3D55B"/><path fill-rule="evenodd" clip-rule="evenodd" d="M0 29h32v-8.049L24.558 14l-7.814 8.415-4.08-4.012L0 29z" fill="#26B99A"/><path fill-rule="evenodd" clip-rule="evenodd" d="M30.911 42H1.09C.487 42 0 41.5 0 40.881V29h32v11.881C32 41.5 31.513 42 30.911 42z" fill="#14A085"/><path fill-rule="evenodd" clip-rule="evenodd" d="M10.884 32.473v5.707c0 .345-.066.635-.198.87a1.583 1.583 0 01-.53.567 2.165 2.165 0 01-.763.298 4.578 4.578 0 01-.889.085 3.75 3.75 0 01-.535-.045 4.713 4.713 0 01-.634-.14 7.042 7.042 0 01-.628-.213 2.328 2.328 0 01-.51-.268l.53-.805c.07.045.168.094.297.144.127.05.268.096.42.139.153.043.312.08.479.114.166.033.322.05.467.05.367 0 .66-.07.878-.204.218-.136.334-.367.348-.691v-5.608h1.268zm1.859 7.477h1.247v-2.645h.925c.401 0 .769-.056 1.101-.169a2.51 2.51 0 00.852-.477c.236-.205.42-.459.551-.76a2.5 2.5 0 00.198-1.01c0-.352-.079-.669-.235-.95a2.36 2.36 0 00-.613-.72 2.666 2.666 0 00-.857-.448 3.22 3.22 0 00-.966-.15h-2.203v7.33zm1.248-3.52v-2.903h.934c.319 0 .575.048.77.145.193.096.344.215.452.358.107.142.178.291.213.447a2.148 2.148 0 01-.062 1.163c-.077.202-.177.36-.302.472a1.149 1.149 0 01-.41.244c-.15.05-.3.075-.452.075H13.99zm10.629-.258v2.833c-.16.193-.338.35-.535.472a3.333 3.333 0 01-1.299.472 4.64 4.64 0 01-.69.05c-.458 0-.879-.078-1.263-.238a2.824 2.824 0 01-1.008-.706 3.293 3.293 0 01-.675-1.173c-.163-.47-.244-1.014-.244-1.63 0-.617.08-1.159.244-1.626.162-.468.387-.857.675-1.168a2.87 2.87 0 011.013-.711 3.212 3.212 0 011.257-.244c.416 0 .804.066 1.164.199.36.133.681.331.966.596l-.863.736a1.478 1.478 0 00-.571-.417 1.778 1.778 0 00-.665-.13c-.257 0-.501.046-.733.14-.233.092-.44.25-.623.471a2.388 2.388 0 00-.431.86c-.104.352-.16.782-.167 1.293.007.497.061.928.162 1.292.1.364.238.663.415.895.177.232.378.404.603.517.225.113.462.169.712.169a4.12 4.12 0 00.69-.065c.129-.023.252-.055.37-.095a.529.529 0 00.26-.169v-1.809h-1.3v-.815h2.536z" fill="#fff"/></svg>