<svg width="31" height="39" fill="none" xmlns="http://www.w3.org/2000/svg"><path fill-rule="evenodd" clip-rule="evenodd" d="M21.579 0H1.367C.804 0 .348.456.348 1.341v36.963c0 .24.456.696 1.02.696h27.908c.563 0 1.019-.456 1.019-.696V9.038c0-.484-.065-.64-.18-.755L22.013.179A.615.615 0 0021.579 0z" fill="#E9E9E0"/><path fill-rule="evenodd" clip-rule="evenodd" d="M21.938.105v8.252h8.252L21.936.105z" fill="#D9D7CA"/><path fill-rule="evenodd" clip-rule="evenodd" d="M29.276 39H1.367a1.019 1.019 0 01-1.019-1.02V27.16h29.947v10.82a1.02 1.02 0 01-1.02 1.019z" fill="#556080"/><path fill-rule="evenodd" clip-rule="evenodd" d="M13.417 29.894v.923l-3.342 5.018-.19.152h3.532v.924H8.752v-.924l3.342-5.018.2-.152H8.752v-.923h4.665zm2.79 7.016h-1.162v-7.016h1.162v7.017zm1.742 0h1.142v-2.532h.848c.367 0 .704-.054 1.009-.162.304-.108.565-.26.78-.457.216-.196.385-.439.505-.728.12-.29.181-.61.181-.967 0-.337-.071-.64-.214-.91-.143-.269-.33-.5-.562-.69a2.408 2.408 0 00-.786-.428 2.832 2.832 0 00-.885-.142H17.95v7.017zm1.143-3.37v-2.78h.857c.291 0 .527.047.704.138.178.092.316.207.415.343.098.137.163.28.195.428a2.14 2.14 0 01-.057 1.114c-.07.194-.162.344-.276.452a1.04 1.04 0 01-.376.233 1.244 1.244 0 01-.415.072h-1.047z" fill="#fff"/><path fill-rule="evenodd" clip-rule="evenodd" d="M15.67 15.321v1.393h2.785v3.482a3.486 3.486 0 01-3.482 3.482 3.486 3.486 0 01-3.482-3.482v-3.482h2.786v-1.393h-1.393v-1.393h1.393v-1.392h-1.393v-1.393h1.393V9.75h-1.393V8.357h1.393V6.964h-1.393V5.571h1.393V4.178h1.393v1.393h1.393v1.393H15.67v1.393h1.393V9.75H15.67v1.393h1.393v1.393H15.67v1.393h1.393v1.392H15.67zm-.697 6.965c1.152 0 2.09-.938 2.09-2.09v-2.089h-4.18v2.09c0 1.151.938 2.089 2.09 2.089z" fill="#C8BDB8"/><path fill-rule="evenodd" clip-rule="evenodd" d="M14.277 20.893h1.393a.696.696 0 100-1.393h-1.393a.696.696 0 100 1.393z" fill="#C8BDB8"/></svg>