<svg width="31" height="39" fill="none" xmlns="http://www.w3.org/2000/svg"><path fill-rule="evenodd" clip-rule="evenodd" d="M21.579 0H1.367C.804 0 .348.456.348 1.341v36.963c0 .24.456.696 1.02.696h27.908c.563 0 1.019-.456 1.019-.696V9.038c0-.484-.065-.64-.18-.755L22.013.179A.615.615 0 0021.579 0z" fill="#E9E9E0"/><path fill-rule="evenodd" clip-rule="evenodd" d="M21.938.105v8.252h8.252L21.936.105z" fill="#D9D7CA"/><path fill-rule="evenodd" clip-rule="evenodd" d="M9.412 23.208c-.243 0-.475-.079-.674-.227-.725-.544-.822-1.15-.776-1.562.126-1.133 1.528-2.32 4.168-3.529 1.047-2.296 2.044-5.124 2.638-7.487-.695-1.512-1.37-3.475-.878-4.626.172-.403.387-.712.79-.846.158-.053.56-.12.707-.12.316 0 .597.366.81.642l.068.089.005.005c.207.265.66.84-.265 4.732.94 1.939 2.27 3.914 3.544 5.266.913-.165 1.698-.25 2.338-.25 1.09 0 1.752.255 2.021.779.223.433.132.94-.271 1.504-.388.543-.923.83-1.546.83-.847 0-1.833-.535-2.933-1.592a33.372 33.372 0 00-6.148 1.965c-.582 1.236-1.14 2.231-1.66 2.96-.713 1-1.33 1.467-1.938 1.467zm1.853-3.57c-1.488.836-2.094 1.524-2.138 1.911-.007.064-.026.233.3.482.104-.033.71-.31 1.838-2.393zm9.858-2.802c-.1-.083-.216-.18-.36-.291.468-.06.91-.076 1.261-.076.572 0 .713.078.798.125l.012.007a.232.232 0 00.009.005c-.016.05-.057.143-.16.289-.215.3-.68.307-.843.307-.277 0-.424-.123-.717-.366zM15.56 11.96a49.664 49.664 0 01-1.862 5.267 34.803 34.803 0 014.524-1.406c-.94-1.092-1.88-2.456-2.662-3.861zm-.422-5.894c-.069.023-.927 1.224.066 2.24.661-1.473-.037-2.25-.066-2.24zM29.276 39H1.367a1.019 1.019 0 01-1.019-1.02V27.16h29.947v10.82a1.02 1.02 0 01-1.02 1.019z" fill="#CC4B4C"/><path fill-rule="evenodd" clip-rule="evenodd" d="M6.786 36.91h1.142v-2.532h.848c.367 0 .704-.054 1.009-.162.304-.108.565-.26.78-.457.216-.196.385-.439.505-.728.12-.29.181-.61.181-.967 0-.337-.071-.64-.214-.91-.143-.269-.33-.5-.562-.69a2.407 2.407 0 00-.786-.428 2.833 2.833 0 00-.885-.142H6.786v7.017zm1.143-3.37v-2.78h.856c.292 0 .528.047.705.138.178.092.316.207.415.343.098.137.163.28.195.428a2.14 2.14 0 01-.057 1.114 1.14 1.14 0 01-.276.452 1.04 1.04 0 01-.376.233 1.243 1.243 0 01-.415.072H7.93zm10.145 1.148c.124-.41.186-.904.186-1.48a3.5 3.5 0 00-.22-1.225 3.067 3.067 0 00-.661-1.061 3.233 3.233 0 00-1.115-.748c-.447-.186-.965-.28-1.556-.28h-2.114v7.017h2.656c.09 0 .226-.011.41-.032.184-.023.387-.073.61-.153.221-.08.451-.198.69-.357.238-.159.451-.376.642-.653.191-.276.348-.619.472-1.028zm-1.528.643c-.343.495-.901.742-1.676.742h-1.133V30.76h.667c.546 0 .99.072 1.332.214.343.143.615.33.815.562.2.232.334.49.404.776.07.286.105.575.105.867 0 .94-.172 1.656-.514 2.152zm4.532-4.571v2.209h2.933v.78h-2.933v3.162h-1.162v-7.017h4.39v.866h-3.228z" fill="#fff"/></svg>