<svg width="30" height="39" fill="none" xmlns="http://www.w3.org/2000/svg"><path fill-rule="evenodd" clip-rule="evenodd" d="M20.883.5H1.323C.778.5.337.944.337 1.807V37.82c0 .235.441.679.986.679h27.008c.545 0 .986-.444.986-.679V9.307c0-.473-.062-.625-.173-.737L21.302.674a.593.593 0 00-.42-.174z" fill="#E9E9E0"/><path fill-rule="evenodd" clip-rule="evenodd" d="M21.23.603v8.04h7.986L21.23.603z" fill="#D9D7CA"/><path fill-rule="evenodd" clip-rule="evenodd" d="M28.331 38.5H1.323a.99.99 0 01-.986-.993V26.964h28.98v10.543a.99.99 0 01-.986.993z" fill="#F29C1F"/><path fill-rule="evenodd" clip-rule="evenodd" d="M9.017 33.143l1.723 3.321H9.46l-1.079-2.58H8.29l-1.161 2.58h-1.28l1.723-3.321-1.834-3.517H7l1.198 2.784h.092l1.3-2.784h1.262l-1.834 3.517zm8.505-3.516h1.124v6.837h-1.124V31.76l-1.52 3.804h-.977l-1.53-3.804v4.704H12.37v-6.837h1.124l2.018 4.676 2.009-4.676zm3.952 0v5.993h3.124v.844H20.35v-6.837h1.124z" fill="#fff"/><path fill-rule="evenodd" clip-rule="evenodd" d="M6.403 16.786a.67.67 0 01-.477-.2.681.681 0 010-.959l4.044-4.071a.67.67 0 01.953 0 .681.681 0 010 .96l-4.044 4.07a.67.67 0 01-.476.2z" fill="#F29C1F"/><path fill-rule="evenodd" clip-rule="evenodd" d="M10.446 20.857a.67.67 0 01-.476-.199l-4.044-4.071a.681.681 0 010-.96.67.67 0 01.953 0l4.044 4.072a.681.681 0 010 .96.67.67 0 01-.477.198zm8.088 0a.67.67 0 01-.476-.199.681.681 0 010-.96l4.043-4.07a.67.67 0 01.953 0 .681.681 0 010 .959l-4.043 4.071a.67.67 0 01-.477.2z" fill="#F29C1F"/><path fill-rule="evenodd" clip-rule="evenodd" d="M22.578 16.786a.67.67 0 01-.477-.2l-4.043-4.07a.681.681 0 010-.96.67.67 0 01.953 0l4.043 4.071a.681.681 0 010 .96.67.67 0 01-.476.199zm-10.11 5.428a.68.68 0 01-.635-.905l4.043-11.536a.672.672 0 01.86-.413.68.68 0 01.412.865l-4.044 11.536a.674.674 0 01-.636.453z" fill="#F29C1F"/></svg>