<svg width="32" height="32" fill="none" xmlns="http://www.w3.org/2000/svg"><path d="M15.172 2.939l.886 1.19.99-1.19c3.482-4.005 8.881-3.818 12.462 0l.252.279c3.483 4.004 2.63 12.007-.691 16.125l-.437.53-.486.57c-1.874 2.164-4.746 5.126-8.616 8.887l-2.21 2.13c-.762.73-1.872.719-2.623-.027l-2.728-2.723-2.428-2.456c-2.887-2.944-5.054-5.248-6.501-6.911-3.566-4.1-4.252-12.026-.687-16.125 3.566-4.1 9.252-4.379 12.817-.28z" fill="#D8D8D8"/><path d="M16.442 4.449l.986-1.187C19.078 1.368 21.16.484 23.236.505c2.082.022 4.2.955 5.906 2.772l.246.272c1.621 1.868 2.269 4.718 2.08 7.657-.187 2.935-1.203 5.859-2.785 7.82 0 .001 0 .002-.002.003l-.43.523-.481.564-.002.002c-1.859 2.147-4.718 5.096-8.583 8.853h-.001L16.977 31.1s0 0 0 0c-.567.541-1.366.534-1.925-.02 0 0 0 0 0 0l-2.725-2.72-.002-.002L9.9 25.904l-.001-.001c-2.885-2.941-5.043-5.236-6.48-6.888C1.724 17.065.69 14.172.524 11.252c-.167-2.923.538-5.785 2.209-7.706 3.382-3.889 8.702-4.126 12.05-.294l.874 1.176.379.51.406-.49z" stroke="#000" stroke-opacity=".4"/></svg>