<svg width="26" height="26" fill="none" xmlns="http://www.w3.org/2000/svg"><path d="M11.92 2.309l.696.935.778-.935c2.736-3.146 6.978-3 9.792 0l.198.22c2.736 3.145 2.065 9.433-.544 12.668l-.343.417-.382.448c-1.472 1.7-3.728 4.027-6.769 6.982l-1.736 1.674c-.599.573-1.47.564-2.061-.021l-2.143-2.14-1.909-1.93c-2.268-2.313-3.97-4.122-5.107-5.43-2.801-3.22-3.34-9.448-.54-12.669 2.802-3.22 7.27-3.44 10.07-.22z" fill="#FF5B65"/><path d="M13 3.564l.775-.931C15.05 1.167 16.657.487 18.255.504c1.604.017 3.24.735 4.563 2.143l.191.213c1.249 1.438 1.755 3.645 1.608 5.937-.146 2.289-.939 4.563-2.164 6.084l-.002.002-.337.41-.377.442-.001.001c-1.458 1.683-3.701 3.998-6.738 6.949 0 0 0 0 0 0l-1.734 1.672s0 0 0 0c-.402.385-.964.38-1.362-.015 0 0 0 0 0 0l-2.14-2.136-.003-.002-1.905-1.927s0 0 0 0c-2.266-2.31-3.96-4.112-5.087-5.408C1.454 13.36.648 11.11.52 8.834.39 6.556.94 4.338 2.229 2.856c2.618-3.01 6.72-3.187 9.303-.233l.684.92.38.51.406-.49z" stroke="#000" stroke-opacity=".4"/></svg>