<svg width="163" height="142" fill="none" xmlns="http://www.w3.org/2000/svg"><path d="M14.202 91.208v6.554c0 1.638 0 3.095.182 4.187h-2.912l-.364-2.185c-.546.728-1.274 1.457-2.184 1.821-.91.546-2.003.728-3.277.728-1.638 0-3.094-.546-4.004-1.456-.91-.91-1.456-2.185-1.456-3.641 0-2.185.91-3.823 2.73-4.916 1.82-1.092 4.368-1.638 7.827-1.638v-.364c0-.547 0-.91-.182-1.275 0-.364-.182-.91-.546-1.274 0-.364-.364-.728-.91-1.092a6.787 6.787 0 00-2.185-.364c-1.82 0-3.276.364-4.55 1.274l-.728-2.185c1.638-1.092 3.64-1.456 5.824-1.456 4.369 0 6.735 2.367 6.735 7.282zm-3.094 4.733v-3.095c-4.915-.182-7.463 1.275-7.463 4.005 0 .91.364 1.821.91 2.367s1.274.728 2.184.728a4.47 4.47 0 002.73-.91c.729-.546 1.275-1.274 1.639-2.185-.182-.182 0-.364 0-.91zm8.192 13.29V90.116c0-2.367 0-4.188-.183-5.826h2.913l.182 3.095c1.274-2.367 3.458-3.46 6.188-3.46 2.185 0 4.005.911 5.461 2.55 1.456 1.638 2.184 3.823 2.184 6.371 0 3.095-.728 5.28-2.366 6.918-1.638 1.639-3.458 2.549-5.643 2.549-2.548 0-4.368-.91-5.46-2.73v9.648h-3.277zm3.276-17.477v3.095c0 .546 0 .91.182 1.274.182 1.093.91 2.003 1.82 2.731.91.728 1.82 1.092 3.094 1.092 1.639 0 2.913-.546 4.005-1.82.91-1.275 1.456-2.913 1.456-4.916 0-1.82-.546-3.459-1.456-4.733-.91-1.274-2.184-1.82-3.823-1.82a4.942 4.942 0 00-3.094 1.092c-.91.728-1.456 1.638-1.82 2.913-.364.546-.364.91-.364 1.092zm14.927-7.464H51.7v2.549h-5.46v15.11h-3.277v-15.11h-5.461V84.29zM1.825 117.056h3.277v7.646h.728l6.553-7.646h3.822l-7.645 8.01c1.456.182 2.548.729 3.458 1.639.91.91 1.82 2.184 2.549 3.823.91 2.367 1.456 3.641 1.82 4.187H12.93c-.364-.546-.91-1.82-1.639-3.641-.546-1.456-1.274-2.549-2.184-3.095-.91-.728-2.002-.91-3.458-.91H4.92v7.646H1.825v-17.659zm24.391 18.026c-2.549 0-4.55-.91-6.007-2.549-1.638-1.638-2.366-3.823-2.366-6.554 0-2.912.91-5.097 2.548-6.918 1.638-1.82 3.823-2.548 6.189-2.548 2.548 0 4.55.91 6.189 2.548 1.638 1.639 2.366 3.823 2.366 6.554 0 3.095-.91 5.462-2.548 6.918-2.003 1.821-4.005 2.549-6.371 2.549zm0-2.367c1.638 0 2.912-.728 3.822-2.002.91-1.275 1.456-2.913 1.456-4.916 0-1.638-.363-3.277-1.274-4.733-.91-1.456-2.184-2.003-4.004-2.003-1.82 0-3.095.729-4.005 2.003-.91 1.274-1.274 3.095-1.274 4.915 0 2.003.546 3.641 1.456 4.916 1.092 1.092 2.367 1.82 3.823 1.82zm12.558-15.656h3.277v7.1h8.373v-7.1H53.7v17.659h-3.276v-8.01H42.05v8.01h-3.277v-17.659zm17.84 0h14.198v2.549h-5.46v15.11h-3.277v-15.11h-5.46v-2.549zM73.54 142v-19.115c0-2.367 0-4.188-.182-5.826h2.913l.182 3.095c1.274-2.367 3.458-3.459 6.189-3.459 2.184 0 4.004.91 5.46 2.549 1.456 1.638 2.185 3.823 2.185 6.371 0 3.095-.729 5.28-2.367 6.918-1.638 1.639-3.458 2.549-5.642 2.549-2.549 0-4.369-.91-5.461-2.731V142H73.54zm3.277-17.477v3.095c0 .546 0 .91.182 1.274.182 1.093.91 2.003 1.82 2.731.91.728 1.82 1.092 3.094 1.092 1.639 0 2.913-.546 4.005-1.82.91-1.274 1.456-2.913 1.456-4.916 0-1.82-.546-3.459-1.456-4.733-.91-1.274-2.184-1.82-3.823-1.82a4.944 4.944 0 00-3.094 1.092c-.91.728-1.456 1.638-1.82 2.913-.364.546-.364.91-.364 1.092zm29.85-.546v6.554c0 1.638 0 3.095.182 4.187h-2.913l-.364-2.185h-.182c-.546.729-1.274 1.457-2.184 1.821-.91.546-2.002.728-3.276.728-1.639 0-3.095-.546-4.005-1.456-.91-.911-1.456-2.185-1.456-3.641 0-2.185.91-3.824 2.73-4.916 1.82-1.092 4.369-1.638 7.827-1.638v-.364c0-.547 0-.911-.182-1.275 0-.364-.182-.91-.546-1.274-.182-.546-.728-.91-1.274-1.092a6.787 6.787 0 00-2.184-.365c-1.82 0-3.277.365-4.551 1.275l-.728-2.185c1.638-1.092 3.64-1.456 5.825-1.456 5.096 0 7.281 2.366 7.281 7.282zm-3.095 4.733v-3.095c-4.914-.182-7.463 1.275-7.463 4.005 0 .911.364 1.821.91 2.367s1.274.728 2.185.728a4.47 4.47 0 002.73-.91c.728-.546 1.274-1.274 1.638-2.185v-.91zm8.197-11.651h3.276v7.646h.728l6.553-7.646h3.822l-7.645 8.01c1.457.182 2.549.729 3.459 1.639.91.91 1.82 2.184 2.548 3.823.91 2.367 1.638 3.823 1.82 4.369h-3.276c-.364-.546-.91-1.82-1.638-3.641-.546-1.456-1.274-2.549-2.184-3.095-.911-.728-2.003-.91-3.459-.91h-.546v7.464h-3.276v-17.659h-.182zm15.839 0h14.198v2.548h-5.46v15.111h-3.277v-15.111h-5.461v-2.548z" fill="#000"/><path fill-rule="evenodd" clip-rule="evenodd" d="M80.825 82.105h70.261V11.651h-70.26v70.454z" fill="#EE4036"/><path fill-rule="evenodd" clip-rule="evenodd" d="M68.99 93.757h93.742V0H68.99v93.757zm2.367-2.367h89.009V2.367h-89.01V91.39z" fill="#EE4036"/></svg>