<svg width="26" height="25" fill="none" xmlns="http://www.w3.org/2000/svg"><path fill-rule="evenodd" clip-rule="evenodd" d="M25.16 10.865c0 6-5.632 10.865-12.58 10.865-1.19 0-1.904-.037-3.43-.41-.984-.24-4.499 1.424-6.874 2.638-.668.341-1.484-.441-1.213-1.14.81-2.09 1.605-5.077.435-6.807C.487 14.516 0 12.727 0 10.865 0 4.865 5.632 0 12.58 0s12.58 4.864 12.58 10.865zM6.863 12.58a1.716 1.716 0 100-3.43 1.716 1.716 0 000 3.43zm7.434-1.715a1.716 1.716 0 11-3.431 0 1.716 1.716 0 013.43 0zM18.3 12.58a1.716 1.716 0 100-3.43 1.716 1.716 0 000 3.43z" fill="#828282"/></svg>