<svg width="24" height="25" fill="none" xmlns="http://www.w3.org/2000/svg"><path fill-rule="evenodd" clip-rule="evenodd" d="M6.187 3.833C5.97 5.29 4.675 6.415 3.11 6.415 1.396 6.415 0 5.064 0 3.403 0 1.743 1.396.391 3.111.391c1.564 0 2.859 1.125 3.076 2.582h17.369c.245 0 .444.192.444.43s-.199.43-.444.43H6.186zm-.854-.43c0-1.186-.997-2.151-2.222-2.151S.89 2.217.89 3.403s.997 2.151 2.222 2.151 2.222-.965 2.222-2.15zm12.48 17.642c.217-1.457 1.512-2.582 3.076-2.582 1.715 0 3.111 1.351 3.111 3.012 0 1.66-1.396 3.012-3.111 3.012-1.564 0-2.859-1.125-3.076-2.582H.444a.437.437 0 01-.444-.43c0-.238.2-.43.444-.43h17.37zm.854.43c0 1.186.997 2.151 2.222 2.151s2.222-.965 2.222-2.151-.997-2.152-2.222-2.152-2.222.966-2.222 2.152zm4.889-9.466h-8.281c-.176-1.55-1.536-2.76-3.183-2.76-1.647 0-3.007 1.21-3.183 2.76H.444a.437.437 0 00-.444.43c0 .238.2.43.444.43h8.493c.257 1.463 1.572 2.582 3.155 2.582 1.583 0 2.898-1.119 3.154-2.582h8.31a.437.437 0 00.444-.43.437.437 0 00-.444-.43zM12.092 14.59c-1.276 0-2.314-1.005-2.314-2.24 0-1.235 1.038-2.24 2.314-2.24s2.314 1.005 2.314 2.24c0 1.235-1.038 2.24-2.314 2.24z" fill="#000"/><mask id="a" maskUnits="userSpaceOnUse" x="0" y="0" width="24" height="25"><path fill-rule="evenodd" clip-rule="evenodd" d="M6.187 3.833C5.97 5.29 4.675 6.415 3.11 6.415 1.396 6.415 0 5.064 0 3.403 0 1.743 1.396.391 3.111.391c1.564 0 2.859 1.125 3.076 2.582h17.369c.245 0 .444.192.444.43s-.199.43-.444.43H6.186zm-.854-.43c0-1.186-.997-2.151-2.222-2.151S.89 2.217.89 3.403s.997 2.151 2.222 2.151 2.222-.965 2.222-2.15zm12.48 17.642c.217-1.457 1.512-2.582 3.076-2.582 1.715 0 3.111 1.351 3.111 3.012 0 1.66-1.396 3.012-3.111 3.012-1.564 0-2.859-1.125-3.076-2.582H.444a.437.437 0 01-.444-.43c0-.238.2-.43.444-.43h17.37zm.854.43c0 1.186.997 2.151 2.222 2.151s2.222-.965 2.222-2.151-.997-2.152-2.222-2.152-2.222.966-2.222 2.152zm4.889-9.466h-8.281c-.176-1.55-1.536-2.76-3.183-2.76-1.647 0-3.007 1.21-3.183 2.76H.444a.437.437 0 00-.444.43c0 .238.2.43.444.43h8.493c.257 1.463 1.572 2.582 3.155 2.582 1.583 0 2.898-1.119 3.154-2.582h8.31a.437.437 0 00.444-.43.437.437 0 00-.444-.43zM12.092 14.59c-1.276 0-2.314-1.005-2.314-2.24 0-1.235 1.038-2.24 2.314-2.24s2.314 1.005 2.314 2.24c0 1.235-1.038 2.24-2.314 2.24z" fill="#fff"/></mask><g mask="url(#a)"><path fill="#77787B" stroke="#77787B" stroke-width="2" d="M-4-3.625h32v33.132H-4z"/></g></svg>