<svg width="34" height="34" fill="none" xmlns="http://www.w3.org/2000/svg"><path d="M.75 16.534C.75 7.828 7.828.75 16.534.75c8.707 0 15.785 7.078 15.785 15.784 0 8.707-7.078 15.785-15.785 15.785C7.828 32.319.75 25.24.75 16.534z" stroke="#fff" stroke-width="1.5"/><path d="M25.867 20.921c-.033-.033-.033-.1-.066-.133-.333-.598-.964-1.297-1.862-2.161l-.033-.033c-.433-.4-.699-.665-.798-.798-.2-.267-.233-.532-.134-.799.067-.199.366-.631.898-1.296.266-.333.466-.632.632-.832 1.13-1.496 1.63-2.46 1.463-2.893l-.066-.1c-.034-.066-.133-.099-.3-.165a1.852 1.852 0 00-.631-.034l-2.827.034h-.2c-.099.033-.166.033-.166.033l-.033.033-.033.033-.1.1a.728.728 0 00-.1.166c-.299.798-.665 1.53-1.064 2.195a20.22 20.22 0 01-.665 1.064c-.2.3-.365.532-.498.665s-.266.266-.366.332c-.1.1-.2.133-.266.1-.067 0-.1-.033-.166-.033a.776.776 0 01-.233-.233.709.709 0 01-.1-.399c-.033-.166-.033-.3-.033-.399v-1.662c0-.3.033-.532.033-.699v-.532c0-.166 0-.332-.033-.432l-.1-.3a.447.447 0 00-.2-.232 1 1 0 00-.332-.133 6.86 6.86 0 00-1.33-.133c-1.23 0-1.995.067-2.36.233a1.039 1.039 0 00-.367.299c-.133.133-.133.233-.033.233.4.066.665.2.831.432l.067.133c.033.1.1.233.133.466.033.2.066.465.1.731.033.466.033.898 0 1.23a12.95 12.95 0 01-.1.798 1.56 1.56 0 01-.133.466c-.067.133-.1.2-.133.2l-.033.033c-.1.033-.167.033-.266.033-.1 0-.2-.033-.333-.133s-.266-.233-.399-.366a7.256 7.256 0 01-.465-.665c-.167-.3-.366-.632-.566-1.03l-.166-.3-.399-.798c-.166-.366-.332-.698-.466-1.03-.066-.134-.133-.234-.232-.3l-.033-.033c-.034-.1-.1-.133-.167-.133a.48.48 0 00-.232-.067l-2.694.034c-.266 0-.465.066-.565.199l-.033.066c-.034.034-.034.1-.034.167 0 .066.034.166.067.266.399.93.831 1.829 1.297 2.66.465.864.864 1.563 1.197 2.062.332.532.698 1.03 1.03 1.496.366.465.599.765.699.898.1.133.2.232.266.299l.232.233c.167.166.4.332.699.565.3.233.632.432.997.632.366.2.798.399 1.297.532.499.133.964.2 1.43.166h1.13c.233-.033.4-.1.533-.2l.033-.033a.253.253 0 00.066-.166c.034-.067.034-.166.034-.266 0-.266 0-.532.066-.765.033-.233.1-.399.166-.499l.2-.299c.066-.066.133-.133.166-.133s.067-.033.067-.033c.166-.067.332 0 .565.166.2.166.399.333.598.565.2.233.4.466.665.765.266.266.5.499.699.632l.2.133c.132.067.299.166.498.2.2.066.399.066.565.033l2.527-.034c.233 0 .433-.033.566-.133.133-.066.232-.166.232-.266a.55.55 0 000-.332c.034-.233 0-.333 0-.366z" fill="#fff"/></svg>