<svg width="34" height="34" fill="none" xmlns="http://www.w3.org/2000/svg"><path d="M.983 16.534C.983 7.828 8.06.75 16.767.75s15.784 7.078 15.784 15.784c0 8.707-7.077 15.785-15.784 15.785S.983 25.24.983 16.534z" stroke="#fff" stroke-width="1.5"/><path d="M19.549 12.411h1.374l-.812 5.685c-.166 1.264.035 1.895.604 1.895.278 0 .548-.083.812-.25.278-.166.52-.423.729-.77.222-.347.396-.791.52-1.333.14-.541.209-1.187.209-1.937 0-.958-.139-1.777-.417-2.457-.263-.694-.638-1.256-1.124-1.687a4.523 4.523 0 00-1.729-.978 7.298 7.298 0 00-2.186-.313c-.889 0-1.722.18-2.499.542-.763.347-1.43.84-2 1.478-.554.639-.999 1.402-1.332 2.29-.32.89-.479 1.875-.479 2.958 0 2.124.528 3.741 1.583 4.852 1.055 1.11 2.534 1.666 4.435 1.666a5.43 5.43 0 001.187-.146c.445-.097.84-.236 1.187-.416l.604 1.811a5.51 5.51 0 01-1.457.521 7.8 7.8 0 01-1.791.187 9.316 9.316 0 01-3.082-.5 6.664 6.664 0 01-2.478-1.54c-.708-.68-1.27-1.548-1.687-2.603-.403-1.07-.604-2.333-.604-3.79 0-1.458.229-2.763.687-3.915.472-1.153 1.097-2.124 1.874-2.916a7.987 7.987 0 012.687-1.811 8.301 8.301 0 013.186-.625c1.055 0 2.04.16 2.957.479a6.34 6.34 0 012.395 1.395c.68.61 1.214 1.381 1.603 2.312.389.916.583 1.985.583 3.206 0 .917-.139 1.77-.416 2.562a6.537 6.537 0 01-1.083 2.02c-.458.555-1 .992-1.624 1.312a4.171 4.171 0 01-1.958.479c-.57 0-1.055-.146-1.458-.438-.388-.291-.569-.798-.541-1.52h-.063a5.566 5.566 0 01-1.166 1.375c-.444.388-.992.583-1.645.583-.597 0-1.104-.264-1.52-.792-.417-.527-.625-1.263-.625-2.207 0-.93.111-1.805.333-2.624.237-.819.549-1.534.938-2.145.388-.624.84-1.117 1.353-1.478.514-.361 1.062-.542 1.645-.542.389 0 .722.07 1 .209.277.138.534.326.77.562l.52-.646zm-1.104 2.395a1.228 1.228 0 00-.979-.437c-.319 0-.61.118-.874.354-.264.222-.493.527-.687.916a5.384 5.384 0 00-.458 1.312 6.806 6.806 0 00-.167 1.52c0 .486.076.86.229 1.125.167.263.416.395.75.395.305 0 .61-.166.916-.5.32-.347.583-.728.791-1.145l.48-3.54z" fill="#fff"/></svg>