<svg width="34" height="34" fill="none" xmlns="http://www.w3.org/2000/svg"><path d="M1.681 16.534C1.681 7.828 8.76.75 17.466.75S33.25 7.828 33.25 16.534c0 8.707-7.078 15.785-15.784 15.785-8.707 0-15.785-7.078-15.785-15.785z" stroke="#fff" stroke-width="1.5"/><path d="M20.448 15.6h-6.725v2.398h3.997a4.264 4.264 0 01-4.091 2.963c-2.4 0-4.327-1.976-4.327-4.374 0-2.399 1.928-4.374 4.327-4.374 1.034 0 1.975.376 2.727.988h.094l1.788-1.788c-1.223-1.128-2.822-1.834-4.61-1.834-3.81 0-6.866 3.151-6.866 6.96 0 3.857 3.057 6.962 6.867 6.962.517 0 .987-.048 1.457-.142a7.257 7.257 0 002.728-1.27 6.365 6.365 0 001.882-2.304c.235-.47.423-.94.564-1.41.141-.612.141-1.224.141-1.882.047-.282.047-.565.047-.894zm7.949.328h-2.07v-2.022H24.54v2.022h-2.07v1.788h2.07v1.834h1.787v-1.834h2.07v-1.788z" fill="#fff"/></svg>