<svg width="34" height="34" fill="none" xmlns="http://www.w3.org/2000/svg"><path d="M1.216 16.534C1.216 7.828 8.293.75 17 .75s15.784 7.078 15.784 15.784c0 8.707-7.077 15.785-15.784 15.785S1.216 25.24 1.216 16.534z" stroke="#fff" stroke-width="1.5"/><path d="M18.384 13.645v-1.507c0-.227.01-.402.032-.526a1.02 1.02 0 01.143-.366.585.585 0 01.361-.25c.166-.045.388-.068.664-.068h1.507V7.913h-2.41c-1.394 0-2.395.331-3.004.993-.608.661-.912 1.636-.912 2.924v1.815H12.96v3.014h1.804v8.747h3.62v-8.747h2.41l.318-3.014h-2.728z" fill="#fff"/></svg>