<svg width="71" height="62" fill="none" xmlns="http://www.w3.org/2000/svg"><path d="M6.475 38.691v2.78c0 .696 0 1.313.078 1.777H5.305l-.156-.927c-.234.309-.546.618-.936.772-.39.232-.859.31-1.405.31-.702 0-1.326-.233-1.716-.619a2.145 2.145 0 01-.624-1.544c0-.927.39-1.622 1.17-2.085.78-.464 1.872-.695 3.355-.695v-.155c0-.231 0-.386-.078-.54a.83.83 0 00-.234-.541c0-.154-.156-.309-.39-.463a2.938 2.938 0 00-.937-.155c-.78 0-1.404.155-1.95.54l-.312-.926c.702-.463 1.56-.618 2.496-.618 1.873 0 2.887 1.004 2.887 3.09zM5.15 40.7v-1.313c-2.107-.077-3.199.54-3.199 1.7 0 .386.156.772.39 1.003.234.232.546.31.936.31a1.93 1.93 0 001.17-.387 2.11 2.11 0 00.703-.927c-.078-.077 0-.154 0-.386zm3.51 5.637v-8.11c0-1.003 0-1.775-.078-2.47h1.249l.078 1.313c.546-1.005 1.482-1.468 2.652-1.468.937 0 1.717.386 2.34 1.081.625.695.937 1.622.937 2.703 0 1.313-.312 2.24-1.014 2.935-.702.695-1.482 1.081-2.419 1.081-1.092 0-1.872-.386-2.34-1.158v4.093H8.66zm1.405-7.414v1.313c0 .232 0 .386.078.54.078.464.39.85.78 1.159.39.309.78.463 1.326.463.702 0 1.248-.231 1.717-.772.39-.54.624-1.236.624-2.085a3.42 3.42 0 00-.624-2.008c-.39-.54-.937-.772-1.639-.772a2.13 2.13 0 00-1.326.463c-.39.309-.624.695-.78 1.236-.156.231-.156.386-.156.463zm6.398-3.166h6.086v1.08h-2.341v6.41h-1.404v-6.41h-2.341v-1.08zM1.17 49.658h1.404V52.9h.312l2.81-3.243h1.638l-3.277 3.398c.624.077 1.092.309 1.482.695.39.386.78.927 1.092 1.622.39 1.004.625 1.544.78 1.776H5.93c-.156-.232-.39-.773-.702-1.545-.234-.618-.546-1.081-.936-1.313-.39-.309-.859-.386-1.483-.386h-.312v3.244H1.17v-7.491zm10.454 7.645c-1.092 0-1.95-.386-2.574-1.081-.703-.695-1.015-1.622-1.015-2.78 0-1.236.39-2.163 1.093-2.935.702-.772 1.638-1.081 2.652-1.081 1.093 0 1.95.386 2.653 1.081.702.695 1.014 1.622 1.014 2.78 0 1.313-.39 2.317-1.092 2.935-.858.772-1.716 1.081-2.73 1.081zm0-1.004c.702 0 1.249-.309 1.639-.85.39-.54.624-1.235.624-2.084 0-.696-.156-1.39-.546-2.008-.39-.618-.936-.85-1.717-.85-.78 0-1.326.309-1.716.85-.39.54-.546 1.313-.546 2.085 0 .85.234 1.544.624 2.085.468.463 1.014.772 1.638.772zm5.384-6.641h1.404v3.011h3.59v-3.011h1.404v7.49H22v-3.397h-3.589v3.398h-1.404v-7.491zm7.646 0h6.086v1.08H28.4v6.41h-1.405v-6.41h-2.34v-1.08zm7.256 10.58v-8.11c0-1.003 0-1.775-.078-2.47h1.248l.078 1.312c.546-1.003 1.483-1.467 2.653-1.467.936 0 1.717.386 2.34 1.081.625.695.937 1.622.937 2.703 0 1.313-.312 2.24-1.014 2.935-.703.695-1.483 1.081-2.419 1.081-1.092 0-1.873-.386-2.34-1.158v4.093H31.91zm1.404-7.414v1.313c0 .231 0 .386.078.54.078.464.39.85.78 1.159.39.309.78.463 1.327.463.702 0 1.248-.231 1.716-.772.39-.54.625-1.236.625-2.085 0-.773-.235-1.468-.625-2.008s-.936-.773-1.638-.773c-.468 0-.936.155-1.326.464-.39.309-.625.695-.78 1.236-.157.231-.157.386-.157.463zm12.795-.232v2.78c0 .696 0 1.313.078 1.777h-1.249l-.156-.927h-.078c-.234.309-.546.618-.936.772-.39.232-.858.31-1.404.31-.703 0-1.327-.233-1.717-.619a2.145 2.145 0 01-.624-1.544c0-.927.39-1.622 1.17-2.085.78-.464 1.873-.695 3.355-.695v-.155c0-.232 0-.386-.078-.54a.83.83 0 00-.234-.541c-.078-.232-.312-.386-.546-.463a2.938 2.938 0 00-.936-.155c-.78 0-1.405.155-1.95.54l-.313-.926c.702-.463 1.56-.618 2.497-.618 2.184 0 3.12 1.004 3.12 3.09zM44.782 54.6v-1.313c-2.106-.077-3.199.54-3.199 1.7 0 .386.156.772.39 1.003.235.232.547.31.937.31a1.93 1.93 0 001.17-.387 2.11 2.11 0 00.702-.927V54.6zm3.513-4.942H49.7V52.9h.312l2.809-3.243h1.638l-3.277 3.398c.624.077 1.092.309 1.482.695.39.386.78.927 1.093 1.622.39 1.004.702 1.621.78 1.853h-1.404c-.156-.232-.39-.772-.703-1.545-.234-.617-.546-1.08-.936-1.312-.39-.31-.858-.387-1.482-.387h-.234v3.167h-1.405v-7.491h-.078zm6.79-.001h6.086v1.082H58.83v6.41h-1.404v-6.41h-2.341v-1.081z" fill="#fff"/><path fill-rule="evenodd" clip-rule="evenodd" d="M35.032 34.83H65.15V4.943H35.032V34.83z" fill="#EE4036"/><path fill-rule="evenodd" clip-rule="evenodd" d="M29.96 39.773h40.18V0H29.96v39.773zm1.014-1.005h38.152V1.005H30.974V38.77z" fill="#EE4036"/></svg>