<svg width="34" height="34" fill="none" xmlns="http://www.w3.org/2000/svg"><path d="M1.448 16.534C1.448 7.828 8.526.75 17.233.75s15.784 7.078 15.784 15.784c0 8.707-7.077 15.785-15.784 15.785S1.448 25.24 1.448 16.534z" stroke="#fff" stroke-width="1.5"/><path d="M22.685 25.406H19.58v-6.874L18.25 19l-2.736 6.406h-3.572l2.809-5.864 1.232-.986c-.87-.246-1.594-.78-2.168-1.6-.575-.839-.863-2.005-.863-3.5 0-1.05.148-1.93.444-2.636.295-.706.714-1.272 1.256-1.7.542-.427 1.191-.73 1.946-.911a9.846 9.846 0 012.489-.296 19.886 19.886 0 011.774.099c.328.033.648.082.96.148.33.049.617.106.863.172v17.074zM19.58 10.894a2.153 2.153 0 00-.444-.098 5.03 5.03 0 00-.542-.025c-.328 0-.64.05-.936.148-.296.082-.55.238-.764.468-.213.214-.386.501-.517.862-.115.362-.173.813-.173 1.355 0 1.035.222 1.783.666 2.242.46.444 1.05.666 1.773.666h.937v-5.618z" fill="#fff"/></svg>