<svg width="22" height="22" fill="none" xmlns="http://www.w3.org/2000/svg"><path fill-rule="evenodd" clip-rule="evenodd" d="M10.923 13.11a2.19 2.19 0 002.188-2.187 2.18 2.18 0 00-.414-1.274 2.184 2.184 0 00-1.772-.912c-.73 0-1.376.36-1.774.911a2.177 2.177 0 00-.414 1.275 2.188 2.188 0 002.186 2.187zm4.775-4.862V6.142l-.274.001-1.832.006.007 2.106 2.1-.007z" fill="#EE4036"/><path fill-rule="evenodd" clip-rule="evenodd" d="M0 10.923C0 4.9 4.9 0 10.923 0c6.024 0 10.924 4.9 10.924 10.923s-4.9 10.924-10.924 10.924C4.9 21.847 0 16.947 0 10.923zm17.136 3.812V7.113a2.404 2.404 0 00-2.402-2.401H7.112a2.403 2.403 0 00-2.4 2.4v7.623a2.403 2.403 0 002.4 2.402h7.623a2.404 2.404 0 002.4-2.402z" fill="#EE4036"/><path fill-rule="evenodd" clip-rule="evenodd" d="M14.321 10.923a3.402 3.402 0 01-3.398 3.399 3.402 3.402 0 01-3.397-3.399c0-.45.09-.881.25-1.274H5.92v5.086c0 .657.534 1.19 1.19 1.19h7.623a1.19 1.19 0 001.19-1.19V9.65H14.07c.161.393.252.824.252 1.274z" fill="#EE4036"/></svg>