<svg width="22" height="22" fill="none" xmlns="http://www.w3.org/2000/svg"><path fill-rule="evenodd" clip-rule="evenodd" d="M0 10.923C0 4.9 4.9 0 10.923 0c6.024 0 10.924 4.9 10.924 10.923s-4.9 10.924-10.924 10.924C4.9 21.847 0 16.947 0 10.923zM15.804 8.75c0-.11-.003-.218-.008-.327a5.058 5.058 0 001.254-1.3c-.45.2-.935.335-1.445.396a2.521 2.521 0 001.107-1.391 5.019 5.019 0 01-1.597.61 2.514 2.514 0 00-4.284 2.294 7.139 7.139 0 01-5.182-2.628c-.216.372-.34.804-.34 1.265 0 .872.444 1.642 1.118 2.092a2.504 2.504 0 01-1.138-.314v.031c0 1.22.866 2.235 2.016 2.466a2.513 2.513 0 01-1.135.042c.32 1 1.248 1.726 2.348 1.746a5.046 5.046 0 01-3.722 1.041 7.111 7.111 0 003.854 1.129c4.626 0 7.154-3.83 7.154-7.152z" fill="#EE4036"/></svg>