<svg width="16" height="16" fill="none" xmlns="http://www.w3.org/2000/svg"><path d="M8.257 1.114h2.911c.158 0 .286.128.286.286v1.761a.286.286 0 01-.286.286h-2.91a.286.286 0 01-.286-.286V1.4c0-.158.128-.286.285-.286zm0 4.608h5.197c.158 0 .286.128.286.286v1.69a.286.286 0 01-.286.285H8.257a.286.286 0 01-.285-.286v-1.69c0-.157.128-.285.285-.285zm0 4.57h7.447c.158 0 .286.129.286.287v1.69a.286.286 0 01-.286.285H8.257a.286.286 0 01-.285-.286v-1.69c0-.157.128-.285.285-.285zm-2.221 1.131H4.61V.28c0-.154-.161-.28-.316-.28h.03-1.749a.282.282 0 00-.282.281v11.142H.286c-.158 0-.286.1-.286.258 0 .08.033.18.086.233l3.138 4a.3.3 0 00.41 0l3.134-3.965c.09-.093.09-.214.09-.254v-.002s0 .001 0 0a.273.273 0 00-.282-.27h-.54z" fill="#000"/></svg>