<svg width="18" height="13" fill="none" xmlns="http://www.w3.org/2000/svg"><g clip-path="url(#clip0)"><path fill-rule="evenodd" clip-rule="evenodd" d="M0 6.342a1 1 0 011-1h13.17l-2.877-2.884a.998.998 0 011.413-1.41L18 6.342l-5.294 5.295a.998.998 0 01-1.412-1.41l2.876-2.885H1a1 1 0 01-1-1z" fill="#EE4036"/><mask id="a" maskUnits="userSpaceOnUse" x="0" y="0" width="18" height="12"><path fill-rule="evenodd" clip-rule="evenodd" d="M0 6.342a1 1 0 011-1h13.17l-2.877-2.884a.998.998 0 011.413-1.41L18 6.342l-5.294 5.295a.998.998 0 01-1.412-1.41l2.876-2.885H1a1 1 0 01-1-1z" fill="#fff"/></mask><g mask="url(#a)"><path fill="#EE4036" d="M-2-4.658h22v22H-2z"/></g></g><defs><clipPath id="clip0"><path fill="#fff" transform="translate(0 .342)" d="M0 0h18v12H0z"/></clipPath></defs></svg>