<svg width="120" height="19" fill="none" xmlns="http://www.w3.org/2000/svg"><path d="M9 .983l2.02 6.22h6.54l-5.29 3.843 2.02 6.219L9 13.42l-5.29 3.844 2.02-6.22L.44 7.203h6.54L9 .983zm25.5 0l2.133 6.22h6.902l-5.584 3.843 2.133 6.219L34.5 13.42l-5.584 3.844 2.133-6.22-5.584-3.843h6.902L34.5.983zm25.5 0l2.02 6.22h6.54l-5.29 3.843 2.02 6.219L60 13.42l-5.29 3.844 2.02-6.22-5.29-3.843h6.54L60 .983zm25.5 0l2.133 6.22h6.902l-5.584 3.843 2.133 6.219L85.5 13.42l-5.584 3.844 2.133-6.22-5.584-3.843h6.902L85.5.983z" fill="#FF5B65"/><path d="M111 .983l2.021 6.22h6.539l-5.291 3.843 2.021 6.219L111 13.42l-5.29 3.844 2.021-6.22-5.291-3.843h6.539L111 .983z" fill="#CCC"/></svg>